<svg width="93" height="119" viewBox="0 0 93 119" version="1.1" xmlns="http://www.w3.org/2000/svg" xmlns:xlink="http://www.w3.org/1999/xlink">
<title>Genius Beatrice</title>
<desc>Created using Figma</desc>
<g id="Canvas" transform="translate(-63 255)">
<g id="Genius Beatrice">
<g id="Group">
<g id="Vector">
<use xlink:href="#path0_fill" transform="translate(76.913 -192.396)" fill="#F8CD0E"/>
<use xlink:href="#path1_stroke" transform="translate(76.913 -192.396)"/>
</g>
<g id="Vector">
<use xlink:href="#path2_fill" transform="translate(114.511 -220.71)" fill="#FFFFFF"/>
<use xlink:href="#path3_stroke" transform="translate(114.511 -220.71)"/>
</g>
<g id="Vector">
<use xlink:href="#path4_fill" transform="translate(86.189 -220.71)" fill="#FFFFFF"/>
<use xlink:href="#path5_stroke" transform="translate(86.189 -220.71)"/>
</g>
<g id="Vector">
<use xlink:href="#path6_fill" transform="translate(127.077 -177.004)"/>
</g>
<g id="Vector">
<use xlink:href="#path7_stroke" transform="translate(63.729 -166.028)"/>
</g>
<g id="Vector">
<use xlink:href="#path8_fill" transform="translate(111.511 -192.395)"/>
</g>
<g id="Vector">
<use xlink:href="#path9_fill" transform="translate(96.106 -192.395)"/>
</g>
<g id="Vector">
<use xlink:href="#path10_stroke" transform="translate(131.65 -159.79)"/>
</g>
</g>
<g id="?">
<use xlink:href="#path11_fill" transform="translate(109.141 -254.576)" fill="#F8CD0E"/>
</g>
</g>
</g>
<defs>
<path id="path0_fill" d="M -5.61523e-06 26.351C -5.61523e-06 40.947 10.952 52.735 25.999 52.735C 26.749 52.735 49.064 52.735 49.064 52.735C 63.069 51.636 75.195 40.219 75.195 26.351C 75.195 11.755 64.111 0.0319982 49.064 0.0319982C 49.064 0.0319982 26.82 -0.0400018 25.999 0.0319982C 12.12 1.254 -5.61523e-06 12.571 -5.61523e-06 26.351Z"/>
<path id="path1_stroke" d="M 49.064 52.735L 49.064 55.735L 49.1815 55.735L 49.2987 55.7258L 49.064 52.735ZM 49.064 0.0319982L 49.0543 3.032L 49.064 3.032L 49.064 0.0319982ZM 25.999 0.0319982L 25.7369 -2.95653L 25.7359 -2.95644L 25.999 0.0319982ZM -3.00001 26.351C -3.00001 42.5112 9.20395 55.735 25.999 55.735L 25.999 49.735C 12.7 49.735 2.99999 39.3828 2.99999 26.351L -3.00001 26.351ZM 25.999 55.735C 26.0005 55.735 26.002 55.735 26.0036 55.735C 26.0053 55.735 26.007 55.735 26.0088 55.735C 26.0106 55.735 26.0124 55.735 26.0144 55.735C 26.0163 55.735 26.0184 55.735 26.0205 55.735C 26.0226 55.735 26.0248 55.735 26.0271 55.735C 26.0294 55.735 26.0317 55.735 26.0342 55.735C 26.0366 55.735 26.0391 55.735 26.0417 55.735C 26.0443 55.735 26.047 55.735 26.0498 55.735C 26.0525 55.735 26.0554 55.735 26.0583 55.735C 26.0612 55.735 26.0642 55.735 26.0673 55.735C 26.0704 55.735 26.0735 55.735 26.0768 55.735C 26.08 55.735 26.0833 55.735 26.0867 55.735C 26.0901 55.735 26.0936 55.735 26.0971 55.735C 26.1007 55.735 26.1043 55.735 26.108 55.735C 26.1117 55.735 26.1155 55.735 26.1193 55.735C 26.1232 55.735 26.1271 55.735 26.1311 55.735C 26.1352 55.735 26.1392 55.735 26.1434 55.735C 26.1476 55.735 26.1518 55.735 26.1561 55.735C 26.1605 55.735 26.1649 55.735 26.1693 55.735C 26.1738 55.735 26.1784 55.735 26.183 55.735C 26.1876 55.735 26.1923 55.735 26.1971 55.735C 26.2019 55.735 26.2067 55.735 26.2116 55.735C 26.2166 55.735 26.2216 55.735 26.2266 55.735C 26.2317 55.735 26.2369 55.735 26.2421 55.735C 26.2473 55.735 26.2526 55.735 26.258 55.735C 26.2634 55.735 26.2688 55.735 26.2743 55.735C 26.2799 55.735 26.2854 55.735 26.2911 55.735C 26.2968 55.735 26.3025 55.735 26.3083 55.735C 26.3142 55.735 26.32 55.735 26.326 55.735C 26.332 55.735 26.338 55.735 26.3441 55.735C 26.3502 55.735 26.3564 55.735 26.3626 55.735C 26.3689 55.735 26.3752 55.735 26.3816 55.735C 26.388 55.735 26.3945 55.735 26.401 55.735C 26.4076 55.735 26.4142 55.735 26.4208 55.735C 26.4275 55.735 26.4343 55.735 26.4411 55.735C 26.4479 55.735 26.4548 55.735 26.4618 55.735C 26.4687 55.735 26.4758 55.735 26.4829 55.735C 26.49 55.735 26.4972 55.735 26.5044 55.735C 26.5117 55.735 26.519 55.735 26.5264 55.735C 26.5337 55.735 26.5412 55.735 26.5487 55.735C 26.5562 55.735 26.5638 55.735 26.5715 55.735C 26.5791 55.735 26.5869 55.735 26.5947 55.735C 26.6025 55.735 26.6103 55.735 26.6183 55.735C 26.6262 55.735 26.6342 55.735 26.6423 55.735C 26.6504 55.735 26.6585 55.735 26.6667 55.735C 26.6749 55.735 26.6832 55.735 26.6915 55.735C 26.6999 55.735 26.7083 55.735 26.7168 55.735C 26.7252 55.735 26.7338 55.735 26.7424 55.735C 26.751 55.735 26.7597 55.735 26.7684 55.735C 26.7771 55.735 26.786 55.735 26.7948 55.735C 26.8037 55.735 26.8126 55.735 26.8216 55.735C 26.8307 55.735 26.8397 55.735 26.8489 55.735C 26.858 55.735 26.8672 55.735 26.8765 55.735C 26.8857 55.735 26.8951 55.735 26.9045 55.735C 26.9139 55.735 26.9233 55.735 26.9328 55.735C 26.9424 55.735 26.952 55.735 26.9616 55.735C 26.9713 55.735 26.981 55.735 26.9908 55.735C 27.0005 55.735 27.0104 55.735 27.0203 55.735C 27.0302 55.735 27.0402 55.735 27.0502 55.735C 27.0602 55.735 27.0703 55.735 27.0805 55.735C 27.0907 55.735 27.1009 55.735 27.1112 55.735C 27.1214 55.735 27.1318 55.735 27.1422 55.735C 27.1526 55.735 27.1631 55.735 27.1736 55.735C 27.1841 55.735 27.1947 55.735 27.2054 55.735C 27.216 55.735 27.2268 55.735 27.2375 55.735C 27.2483 55.735 27.2592 55.735 27.2701 55.735C 27.281 55.735 27.2919 55.735 27.3029 55.735C 27.314 55.735 27.325 55.735 27.3362 55.735C 27.3473 55.735 27.3585 55.735 27.3698 55.735C 27.381 55.735 27.3924 55.735 27.4037 55.735C 27.4151 55.735 27.4266 55.735 27.4381 55.735C 27.4496 55.735 27.4611 55.735 27.4727 55.735C 27.4844 55.735 27.496 55.735 27.5078 55.735C 27.5195 55.735 27.5313 55.735 27.5431 55.735C 27.555 55.735 27.5669 55.735 27.5789 55.735C 27.5908 55.735 27.6028 55.735 27.6149 55.735C 27.627 55.735 27.6391 55.735 27.6513 55.735C 27.6635 55.735 27.6758 55.735 27.6881 55.735C 27.7004 55.735 27.7128 55.735 27.7252 55.735C 27.7376 55.735 27.7501 55.735 27.7626 55.735C 27.7752 55.735 27.7878 55.735 27.8004 55.735C 27.813 55.735 27.8258 55.735 27.8385 55.735C 27.8513 55.735 27.8641 55.735 27.8769 55.735C 27.8898 55.735 27.9027 55.735 27.9157 55.735C 27.9287 55.735 27.9417 55.735 27.9548 55.735C 27.9679 55.735 27.981 55.735 27.9942 55.735C 28.0074 55.735 28.0207 55.735 28.034 55.735C 28.0473 55.735 28.0607 55.735 28.0741 55.735C 28.0875 55.735 28.1009 55.735 28.1145 55.735C 28.128 55.735 28.1416 55.735 28.1552 55.735C 28.1688 55.735 28.1825 55.735 28.1962 55.735C 28.2099 55.735 28.2237 55.735 28.2376 55.735C 28.2514 55.735 28.2653 55.735 28.2792 55.735C 28.2931 55.735 28.3071 55.735 28.3212 55.735C 28.3352 55.735 28.3493 55.735 28.3635 55.735C 28.3776 55.735 28.3918 55.735 28.406 55.735C 28.4203 55.735 28.4346 55.735 28.4489 55.735C 28.4633 55.735 28.4777 55.735 28.4921 55.735C 28.5066 55.735 28.5211 55.735 28.5356 55.735C 28.5502 55.735 28.5648 55.735 28.5794 55.735C 28.5941 55.735 28.6088 55.735 28.6235 55.735C 28.6383 55.735 28.6531 55.735 28.6679 55.735C 28.6828 55.735 28.6976 55.735 28.7126 55.735C 28.7275 55.735 28.7425 55.735 28.7576 55.735C 28.7726 55.735 28.7877 55.735 28.8028 55.735C 28.818 55.735 28.8331 55.735 28.8484 55.735C 28.8636 55.735 28.8789 55.735 28.8942 55.735C 28.9095 55.735 28.9249 55.735 28.9403 55.735C 28.9558 55.735 28.9712 55.735 28.9867 55.735C 29.0023 55.735 29.0178 55.735 29.0334 55.735C 29.049 55.735 29.0647 55.735 29.0804 55.735C 29.0961 55.735 29.1118 55.735 29.1276 55.735C 29.1434 55.735 29.1592 55.735 29.1751 55.735C 29.191 55.735 29.2069 55.735 29.2229 55.735C 29.2389 55.735 29.2549 55.735 29.271 55.735C 29.287 55.735 29.3031 55.735 29.3193 55.735C 29.3354 55.735 29.3516 55.735 29.3679 55.735C 29.3841 55.735 29.4004 55.735 29.4167 55.735C 29.433 55.735 29.4494 55.735 29.4658 55.735C 29.4822 55.735 29.4987 55.735 29.5152 55.735C 29.5317 55.735 29.5482 55.735 29.5648 55.735C 29.5814 55.735 29.598 55.735 29.6147 55.735C 29.6314 55.735 29.6481 55.735 29.6649 55.735C 29.6816 55.735 29.6984 55.735 29.7152 55.735C 29.7321 55.735 29.749 55.735 29.7659 55.735C 29.7828 55.735 29.7998 55.735 29.8168 55.735C 29.8338 55.735 29.8508 55.735 29.8679 55.735C 29.885 55.735 29.9021 55.735 29.9193 55.735C 29.9365 55.735 29.9537 55.735 29.9709 55.735C 29.9882 55.735 30.0055 55.735 30.0228 55.735C 30.0401 55.735 30.0575 55.735 30.0749 55.735C 30.0923 55.735 30.1097 55.735 30.1272 55.735C 30.1447 55.735 30.1622 55.735 30.1798 55.735C 30.1974 55.735 30.215 55.735 30.2326 55.735C 30.2503 55.735 30.2679 55.735 30.2857 55.735C 30.3034 55.735 30.3211 55.735 30.3389 55.735C 30.3567 55.735 30.3745 55.735 30.3924 55.735C 30.4103 55.735 30.4282 55.735 30.4461 55.735C 30.4641 55.735 30.4821 55.735 30.5001 55.735C 30.5181 55.735 30.5362 55.735 30.5542 55.735C 30.5723 55.735 30.5905 55.735 30.6086 55.735C 30.6268 55.735 30.645 55.735 30.6632 55.735C 30.6815 55.735 30.6997 55.735 30.718 55.735C 30.7363 55.735 30.7547 55.735 30.7731 55.735C 30.7914 55.735 30.8099 55.735 30.8283 55.735C 30.8468 55.735 30.8652 55.735 30.8837 55.735C 30.9023 55.735 30.9208 55.735 30.9394 55.735C 30.958 55.735 30.9766 55.735 30.9953 55.735C 31.0139 55.735 31.0326 55.735 31.0513 55.735C 31.07 55.735 31.0888 55.735 31.1076 55.735C 31.1264 55.735 31.1452 55.735 31.1641 55.735C 31.1829 55.735 31.2018 55.735 31.2207 55.735C 31.2396 55.735 31.2586 55.735 31.2776 55.735C 31.2966 55.735 31.3156 55.735 31.3346 55.735C 31.3537 55.735 31.3728 55.735 31.3919 55.735C 31.411 55.735 31.4301 55.735 31.4493 55.735C 31.4685 55.735 31.4877 55.735 31.5069 55.735C 31.5261 55.735 31.5454 55.735 31.5647 55.735C 31.584 55.735 31.6033 55.735 31.6227 55.735C 31.6421 55.735 31.6615 55.735 31.6809 55.735C 31.7003 55.735 31.7197 55.735 31.7392 55.735C 31.7587 55.735 31.7782 55.735 31.7977 55.735C 31.8173 55.735 31.8369 55.735 31.8565 55.735C 31.876 55.735 31.8957 55.735 31.9153 55.735C 31.935 55.735 31.9547 55.735 31.9744 55.735C 31.9941 55.735 32.0138 55.735 32.0336 55.735C 32.0534 55.735 32.0732 55.735 32.093 55.735C 32.1128 55.735 32.1327 55.735 32.1525 55.735C 32.1724 55.735 32.1923 55.735 32.2122 55.735C 32.2322 55.735 32.2521 55.735 32.2721 55.735C 32.2921 55.735 32.3121 55.735 32.3322 55.735C 32.3522 55.735 32.3723 55.735 32.3924 55.735C 32.4125 55.735 32.4326 55.735 32.4527 55.735C 32.4729 55.735 32.493 55.735 32.5132 55.735C 32.5334 55.735 32.5536 55.735 32.5739 55.735C 32.5941 55.735 32.6144 55.735 32.6347 55.735C 32.655 55.735 32.6753 55.735 32.6957 55.735C 32.716 55.735 32.7364 55.735 32.7568 55.735C 32.7771 55.735 32.7976 55.735 32.818 55.735C 32.8384 55.735 32.8589 55.735 32.8794 55.735C 32.8999 55.735 32.9204 55.735 32.9409 55.735C 32.9615 55.735 32.982 55.735 33.0026 55.735C 33.0232 55.735 33.0438 55.735 33.0644 55.735C 33.085 55.735 33.1057 55.735 33.1263 55.735C 33.147 55.735 33.1677 55.735 33.1884 55.735C 33.2091 55.735 33.2299 55.735 33.2506 55.735C 33.2714 55.735 33.2922 55.735 33.313 55.735C 33.3338 55.735 33.3546 55.735 33.3754 55.735C 33.3963 55.735 33.4171 55.735 33.438 55.735C 33.4589 55.735 33.4798 55.735 33.5007 55.735C 33.5216 55.735 33.5426 55.735 33.5635 55.735C 33.5845 55.735 33.6055 55.735 33.6265 55.735C 33.6475 55.735 33.6685 55.735 33.6896 55.735C 33.7106 55.735 33.7317 55.735 33.7527 55.735C 33.7738 55.735 33.7949 55.735 33.816 55.735C 33.8371 55.735 33.8583 55.735 33.8794 55.735C 33.9006 55.735 33.9218 55.735 33.9429 55.735C 33.9641 55.735 33.9853 55.735 34.0066 55.735C 34.0278 55.735 34.049 55.735 34.0703 55.735C 34.0915 55.735 34.1128 55.735 34.1341 55.735C 34.1554 55.735 34.1767 55.735 34.198 55.735C 34.2194 55.735 34.2407 55.735 34.2621 55.735C 34.2834 55.735 34.3048 55.735 34.3262 55.735C 34.3476 55.735 34.369 55.735 34.3904 55.735C 34.4118 55.735 34.4333 55.735 34.4547 55.735C 34.4762 55.735 34.4977 55.735 34.5191 55.735C 34.5406 55.735 34.5621 55.735 34.5836 55.735C 34.6052 55.735 34.6267 55.735 34.6482 55.735C 34.6698 55.735 34.6913 55.735 34.7129 55.735C 34.7345 55.735 34.7561 55.735 34.7776 55.735C 34.7992 55.735 34.8209 55.735 34.8425 55.735C 34.8641 55.735 34.8857 55.735 34.9074 55.735C 34.929 55.735 34.9507 55.735 34.9724 55.735C 34.9941 55.735 35.0158 55.735 35.0375 55.735C 35.0592 55.735 35.0809 55.735 35.1026 55.735C 35.1243 55.735 35.1461 55.735 35.1678 55.735C 35.1896 55.735 35.2113 55.735 35.2331 55.735C 35.2549 55.735 35.2766 55.735 35.2984 55.735C 35.3202 55.735 35.342 55.735 35.3639 55.735C 35.3857 55.735 35.4075 55.735 35.4293 55.735C 35.4512 55.735 35.473 55.735 35.4949 55.735C 35.5167 55.735 35.5386 55.735 35.5605 55.735C 35.5824 55.735 35.6043 55.735 35.6262 55.735C 35.648 55.735 35.67 55.735 35.6919 55.735C 35.7138 55.735 35.7357 55.735 35.7576 55.735C 35.7796 55.735 35.8015 55.735 35.8235 55.735C 35.8454 55.735 35.8674 55.735 35.8893 55.735C 35.9113 55.735 35.9333 55.735 35.9553 55.735C 35.9772 55.735 35.9992 55.735 36.0212 55.735C 36.0432 55.735 36.0652 55.735 36.0872 55.735C 36.1093 55.735 36.1313 55.735 36.1533 55.735C 36.1753 55.735 36.1974 55.735 36.2194 55.735C 36.2414 55.735 36.2635 55.735 36.2855 55.735C 36.3076 55.735 36.3296 55.735 36.3517 55.735C 36.3738 55.735 36.3958 55.735 36.4179 55.735C 36.44 55.735 36.4621 55.735 36.4841 55.735C 36.5062 55.735 36.5283 55.735 36.5504 55.735C 36.5725 55.735 36.5946 55.735 36.6167 55.735C 36.6388 55.735 36.6609 55.735 36.683 55.735C 36.7052 55.735 36.7273 55.735 36.7494 55.735C 36.7715 55.735 36.7936 55.735 36.8158 55.735C 36.8379 55.735 36.86 55.735 36.8821 55.735C 36.9043 55.735 36.9264 55.735 36.9486 55.735C 36.9707 55.735 36.9928 55.735 37.015 55.735C 37.0371 55.735 37.0593 55.735 37.0814 55.735C 37.1036 55.735 37.1257 55.735 37.1479 55.735C 37.17 55.735 37.1922 55.735 37.2144 55.735C 37.2365 55.735 37.2587 55.735 37.2808 55.735C 37.303 55.735 37.3252 55.735 37.3473 55.735C 37.3695 55.735 37.3916 55.735 37.4138 55.735C 37.436 55.735 37.4581 55.735 37.4803 55.735C 37.5025 55.735 37.5246 55.735 37.5468 55.735C 37.569 55.735 37.5911 55.735 37.6133 55.735C 37.6354 55.735 37.6576 55.735 37.6798 55.735C 37.7019 55.735 37.7241 55.735 37.7463 55.735C 37.7684 55.735 37.7906 55.735 37.8127 55.735C 37.8349 55.735 37.8571 55.735 37.8792 55.735C 37.9014 55.735 37.9235 55.735 37.9457 55.735C 37.9678 55.735 37.99 55.735 38.0121 55.735C 38.0343 55.735 38.0564 55.735 38.0785 55.735C 38.1007 55.735 38.1228 55.735 38.145 55.735C 38.1671 55.735 38.1892 55.735 38.2114 55.735C 38.2335 55.735 38.2556 55.735 38.2777 55.735C 38.2999 55.735 38.322 55.735 38.3441 55.735C 38.3662 55.735 38.3883 55.735 38.4104 55.735C 38.4325 55.735 38.4546 55.735 38.4767 55.735C 38.4988 55.735 38.5209 55.735 38.543 55.735C 38.5651 55.735 38.5872 55.735 38.6093 55.735C 38.6313 55.735 38.6534 55.735 38.6755 55.735C 38.6975 55.735 38.7196 55.735 38.7416 55.735C 38.7637 55.735 38.7857 55.735 38.8078 55.735C 38.8298 55.735 38.8519 55.735 38.8739 55.735C 38.8959 55.735 38.9179 55.735 38.94 55.735C 38.962 55.735 38.984 55.735 39.006 55.735C 39.028 55.735 39.05 55.735 39.072 55.735C 39.094 55.735 39.1159 55.735 39.1379 55.735C 39.1599 55.735 39.1818 55.735 39.2038 55.735C 39.2257 55.735 39.2477 55.735 39.2696 55.735C 39.2916 55.735 39.3135 55.735 39.3354 55.735C 39.3573 55.735 39.3792 55.735 39.4011 55.735C 39.423 55.735 39.4449 55.735 39.4668 55.735C 39.4887 55.735 39.5106 55.735 39.5324 55.735C 39.5543 55.735 39.5761 55.735 39.598 55.735C 39.6198 55.735 39.6417 55.735 39.6635 55.735C 39.6853 55.735 39.7071 55.735 39.7289 55.735C 39.7507 55.735 39.7725 55.735 39.7943 55.735C 39.8161 55.735 39.8378 55.735 39.8596 55.735C 39.8813 55.735 39.9031 55.735 39.9248 55.735C 39.9466 55.735 39.9683 55.735 39.99 55.735C 40.0117 55.735 40.0334 55.735 40.0551 55.735C 40.0767 55.735 40.0984 55.735 40.1201 55.735C 40.1417 55.735 40.1634 55.735 40.185 55.735C 40.2066 55.735 40.2283 55.735 40.2499 55.735C 40.2715 55.735 40.2931 55.735 40.3146 55.735C 40.3362 55.735 40.3578 55.735 40.3793 55.735C 40.4009 55.735 40.4224 55.735 40.4439 55.735C 40.4655 55.735 40.487 55.735 40.5085 55.735C 40.5299 55.735 40.5514 55.735 40.5729 55.735C 40.5943 55.735 40.6158 55.735 40.6372 55.735C 40.6586 55.735 40.6801 55.735 40.7015 55.735C 40.7229 55.735 40.7442 55.735 40.7656 55.735C 40.787 55.735 40.8083 55.735 40.8297 55.735C 40.851 55.735 40.8723 55.735 40.8936 55.735C 40.9149 55.735 40.9362 55.735 40.9575 55.735C 40.9787 55.735 41 55.735 41.0212 55.735C 41.0425 55.735 41.0637 55.735 41.0849 55.735C 41.1061 55.735 41.1273 55.735 41.1484 55.735C 41.1696 55.735 41.1907 55.735 41.2118 55.735C 41.233 55.735 41.2541 55.735 41.2752 55.735C 41.2963 55.735 41.3173 55.735 41.3384 55.735C 41.3594 55.735 41.3805 55.735 41.4015 55.735C 41.4225 55.735 41.4435 55.735 41.4644 55.735C 41.4854 55.735 41.5064 55.735 41.5273 55.735C 41.5482 55.735 41.5691 55.735 41.59 55.735C 41.6109 55.735 41.6318 55.735 41.6527 55.735C 41.6735 55.735 41.6943 55.735 41.7151 55.735C 41.736 55.735 41.7567 55.735 41.7775 55.735C 41.7983 55.735 41.819 55.735 41.8398 55.735C 41.8605 55.735 41.8812 55.735 41.9019 55.735C 41.9225 55.735 41.9432 55.735 41.9638 55.735C 41.9845 55.735 42.0051 55.735 42.0257 55.735C 42.0463 55.735 42.0668 55.735 42.0874 55.735C 42.1079 55.735 42.1284 55.735 42.1489 55.735C 42.1694 55.735 42.1899 55.735 42.2104 55.735C 42.2308 55.735 42.2513 55.735 42.2717 55.735C 42.2921 55.735 42.3124 55.735 42.3328 55.735C 42.3532 55.735 42.3735 55.735 42.3938 55.735C 42.4141 55.735 42.4344 55.735 42.4546 55.735C 42.4749 55.735 42.4951 55.735 42.5153 55.735C 42.5355 55.735 42.5557 55.735 42.5759 55.735C 42.596 55.735 42.6162 55.735 42.6363 55.735C 42.6564 55.735 42.6765 55.735 42.6965 55.735C 42.7166 55.735 42.7366 55.735 42.7566 55.735C 42.7766 55.735 42.7966 55.735 42.8165 55.735C 42.8364 55.735 42.8564 55.735 42.8763 55.735C 42.8962 55.735 42.916 55.735 42.9359 55.735C 42.9557 55.735 42.9755 55.735 42.9953 55.735C 43.0151 55.735 43.0348 55.735 43.0545 55.735C 43.0743 55.735 43.094 55.735 43.1136 55.735C 43.1333 55.735 43.1529 55.735 43.1726 55.735C 43.1922 55.735 43.2117 55.735 43.2313 55.735C 43.2509 55.735 43.2704 55.735 43.2899 55.735C 43.3094 55.735 43.3288 55.735 43.3483 55.735C 43.3677 55.735 43.3871 55.735 43.4065 55.735C 43.4259 55.735 43.4452 55.735 43.4645 55.735C 43.4838 55.735 43.5031 55.735 43.5224 55.735C 43.5416 55.735 43.5608 55.735 43.58 55.735C 43.5992 55.735 43.6184 55.735 43.6375 55.735C 43.6566 55.735 43.6757 55.735 43.6948 55.735C 43.7139 55.735 43.7329 55.735 43.7519 55.735C 43.7709 55.735 43.7899 55.735 43.8088 55.735C 43.8277 55.735 43.8466 55.735 43.8655 55.735C 43.8844 55.735 43.9032 55.735 43.922 55.735C 43.9408 55.735 43.9596 55.735 43.9783 55.735C 43.9971 55.735 44.0158 55.735 44.0344 55.735C 44.0531 55.735 44.0718 55.735 44.0904 55.735C 44.109 55.735 44.1275 55.735 44.1461 55.735C 44.1646 55.735 44.1831 55.735 44.2016 55.735C 44.22 55.735 44.2385 55.735 44.2569 55.735C 44.2752 55.735 44.2936 55.735 44.3119 55.735C 44.3303 55.735 44.3485 55.735 44.3668 55.735C 44.385 55.735 44.4033 55.735 44.4214 55.735C 44.4396 55.735 44.4578 55.735 44.4759 55.735C 44.494 55.735 44.5121 55.735 44.5301 55.735C 44.5481 55.735 44.5661 55.735 44.5841 55.735C 44.6021 55.735 44.62 55.735 44.6379 55.735C 44.6558 55.735 44.6736 55.735 44.6914 55.735C 44.7092 55.735 44.727 55.735 44.7447 55.735C 44.7625 55.735 44.7802 55.735 44.7978 55.735C 44.8155 55.735 44.8331 55.735 44.8507 55.735C 44.8683 55.735 44.8858 55.735 44.9033 55.735C 44.9208 55.735 44.9383 55.735 44.9557 55.735C 44.9732 55.735 44.9906 55.735 45.0079 55.735C 45.0253 55.735 45.0426 55.735 45.0598 55.735C 45.0771 55.735 45.0943 55.735 45.1115 55.735C 45.1287 55.735 45.1459 55.735 45.163 55.735C 45.1801 55.735 45.1971 55.735 45.2142 55.735C 45.2312 55.735 45.2482 55.735 45.2651 55.735C 45.2821 55.735 45.299 55.735 45.3158 55.735C 45.3327 55.735 45.3495 55.735 45.3663 55.735C 45.383 55.735 45.3998 55.735 45.4165 55.735C 45.4332 55.735 45.4498 55.735 45.4664 55.735C 45.483 55.735 45.4996 55.735 45.5161 55.735C 45.5326 55.735 45.5491 55.735 45.5656 55.735C 45.582 55.735 45.5984 55.735 45.6147 55.735C 45.6311 55.735 45.6474 55.735 45.6636 55.735C 45.6799 55.735 45.6961 55.735 45.7123 55.735C 45.7285 55.735 45.7446 55.735 45.7607 55.735C 45.7768 55.735 45.7928 55.735 45.8088 55.735C 45.8248 55.735 45.8407 55.735 45.8566 55.735C 45.8726 55.735 45.8884 55.735 45.9042 55.735C 45.92 55.735 45.9358 55.735 45.9515 55.735C 45.9673 55.735 45.9829 55.735 45.9986 55.735C 46.0142 55.735 46.0298 55.735 46.0453 55.735C 46.0608 55.735 46.0763 55.735 46.0918 55.735C 46.1072 55.735 46.1226 55.735 46.138 55.735C 46.1533 55.735 46.1686 55.735 46.1839 55.735C 46.1991 55.735 46.2143 55.735 46.2295 55.735C 46.2447 55.735 46.2598 55.735 46.2748 55.735C 46.2899 55.735 46.3049 55.735 46.3199 55.735C 46.3349 55.735 46.3498 55.735 46.3646 55.735C 46.3795 55.735 46.3943 55.735 46.4091 55.735C 46.4239 55.735 46.4386 55.735 46.4533 55.735C 46.4679 55.735 46.4826 55.735 46.4971 55.735C 46.5117 55.735 46.5262 55.735 46.5407 55.735C 46.5552 55.735 46.5696 55.735 46.584 55.735C 46.5984 55.735 46.6127 55.735 46.6269 55.735C 46.6412 55.735 46.6554 55.735 46.6696 55.735C 46.6838 55.735 46.6979 55.735 46.712 55.735C 46.726 55.735 46.74 55.735 46.754 55.735C 46.768 55.735 46.7819 55.735 46.7957 55.735C 46.8096 55.735 46.8234 55.735 46.8372 55.735C 46.8509 55.735 46.8646 55.735 46.8783 55.735C 46.8919 55.735 46.9055 55.735 46.9191 55.735C 46.9326 55.735 46.9461 55.735 46.9595 55.735C 46.973 55.735 46.9864 55.735 46.9997 55.735C 47.013 55.735 47.0263 55.735 47.0395 55.735C 47.0528 55.735 47.0659 55.735 47.079 55.735C 47.0922 55.735 47.1052 55.735 47.1182 55.735C 47.1312 55.735 47.1442 55.735 47.1571 55.735C 47.17 55.735 47.1828 55.735 47.1956 55.735C 47.2084 55.735 47.2211 55.735 47.2338 55.735C 47.2465 55.735 47.2591 55.735 47.2716 55.735C 47.2842 55.735 47.2967 55.735 47.3092 55.735C 47.3216 55.735 47.334 55.735 47.3463 55.735C 47.3587 55.735 47.371 55.735 47.3832 55.735C 47.3954 55.735 47.4076 55.735 47.4197 55.735C 47.4318 55.735 47.4438 55.735 47.4558 55.735C 47.4678 55.735 47.4798 55.735 47.4916 55.735C 47.5035 55.735 47.5153 55.735 47.5271 55.735C 47.5389 55.735 47.5506 55.735 47.5622 55.735C 47.5739 55.735 47.5855 55.735 47.597 55.735C 47.6085 55.735 47.62 55.735 47.6314 55.735C 47.6428 55.735 47.6541 55.735 47.6654 55.735C 47.6767 55.735 47.688 55.735 47.6991 55.735C 47.7103 55.735 47.7214 55.735 47.7325 55.735C 47.7435 55.735 47.7545 55.735 47.7654 55.735C 47.7764 55.735 47.7872 55.735 47.798 55.735C 47.8088 55.735 47.8196 55.735 47.8303 55.735C 47.841 55.735 47.8516 55.735 47.8622 55.735C 47.8727 55.735 47.8832 55.735 47.8937 55.735C 47.9041 55.735 47.9145 55.735 47.9248 55.735C 47.9351 55.735 47.9454 55.735 47.9556 55.735C 47.9657 55.735 47.9759 55.735 47.9859 55.735C 47.996 55.735 48.006 55.735 48.0159 55.735C 48.0259 55.735 48.0358 55.735 48.0456 55.735C 48.0554 55.735 48.0651 55.735 48.0748 55.735C 48.0845 55.735 48.0941 55.735 48.1037 55.735C 48.1132 55.735 48.1227 55.735 48.1322 55.735C 48.1416 55.735 48.1509 55.735 48.1602 55.735C 48.1695 55.735 48.1788 55.735 48.188 55.735C 48.1971 55.735 48.2062 55.735 48.2153 55.735C 48.2243 55.735 48.2333 55.735 48.2422 55.735C 48.2511 55.735 48.2599 55.735 48.2687 55.735C 48.2775 55.735 48.2862 55.735 48.2948 55.735C 48.3035 55.735 48.312 55.735 48.3205 55.735C 48.3291 55.735 48.3375 55.735 48.3459 55.735C 48.3543 55.735 48.3626 55.735 48.3708 55.735C 48.379 55.735 48.3872 55.735 48.3953 55.735C 48.4034 55.735 48.4115 55.735 48.4194 55.735C 48.4274 55.735 48.4353 55.735 48.4431 55.735C 48.451 55.735 48.4587 55.735 48.4664 55.735C 48.4741 55.735 48.4817 55.735 48.4893 55.735C 48.4969 55.735 48.5043 55.735 48.5118 55.735C 48.5192 55.735 48.5265 55.735 48.5338 55.735C 48.5411 55.735 48.5483 55.735 48.5554 55.735C 48.5626 55.735 48.5696 55.735 48.5766 55.735C 48.5836 55.735 48.5906 55.735 48.5974 55.735C 48.6043 55.735 48.6111 55.735 48.6178 55.735C 48.6245 55.735 48.6312 55.735 48.6377 55.735C 48.6443 55.735 48.6508 55.735 48.6572 55.735C 48.6637 55.735 48.67 55.735 48.6763 55.735C 48.6826 55.735 48.6888 55.735 48.695 55.735C 48.7011 55.735 48.7072 55.735 48.7132 55.735C 48.7192 55.735 48.7251 55.735 48.7309 55.735C 48.7368 55.735 48.7426 55.735 48.7483 55.735C 48.754 55.735 48.7596 55.735 48.7652 55.735C 48.7707 55.735 48.7762 55.735 48.7816 55.735C 48.787 55.735 48.7924 55.735 48.7976 55.735C 48.8029 55.735 48.8081 55.735 48.8132 55.735C 48.8183 55.735 48.8234 55.735 48.8283 55.735C 48.8333 55.735 48.8382 55.735 48.843 55.735C 48.8478 55.735 48.8525 55.735 48.8572 55.735C 48.8619 55.735 48.8664 55.735 48.871 55.735C 48.8755 55.735 48.8799 55.735 48.8843 55.735C 48.8886 55.735 48.8929 55.735 48.8971 55.735C 48.9013 55.735 48.9054 55.735 48.9095 55.735C 48.9135 55.735 48.9175 55.735 48.9214 55.735C 48.9253 55.735 48.9291 55.735 48.9329 55.735C 48.9366 55.735 48.9403 55.735 48.9439 55.735C 48.9475 55.735 48.951 55.735 48.9544 55.735C 48.9578 55.735 48.9612 55.735 48.9645 55.735C 48.9677 55.735 48.9709 55.735 48.974 55.735C 48.9772 55.735 48.9802 55.735 48.9832 55.735C 48.9861 55.735 48.989 55.735 48.9918 55.735C 48.9946 55.735 48.9973 55.735 49 55.735C 49.0026 55.735 49.0052 55.735 49.0076 55.735C 49.0101 55.735 49.0125 55.735 49.0148 55.735C 49.0172 55.735 49.0194 55.735 49.0216 55.735C 49.0237 55.735 49.0258 55.735 49.0278 55.735C 49.0298 55.735 49.0317 55.735 49.0335 55.735C 49.0354 55.735 49.0371 55.735 49.0388 55.735C 49.0405 55.735 49.042 55.735 49.0435 55.735C 49.0451 55.735 49.0465 55.735 49.0478 55.735C 49.0492 55.735 49.0504 55.735 49.0516 55.735C 49.0528 55.735 49.0539 55.735 49.0549 55.735C 49.0559 55.735 49.0568 55.735 49.0576 55.735C 49.0585 55.735 49.0592 55.735 49.0599 55.735C 49.0606 55.735 49.0612 55.735 49.0617 55.735C 49.0622 55.735 49.0626 55.735 49.063 55.735C 49.0633 55.735 49.0636 55.735 49.0637 55.735C 49.0639 55.735 49.064 55.735 49.064 52.735C 49.064 49.735 49.0639 49.735 49.0637 49.735C 49.0636 49.735 49.0633 49.735 49.063 49.735C 49.0626 49.735 49.0622 49.735 49.0617 49.735C 49.0612 49.735 49.0606 49.735 49.0599 49.735C 49.0592 49.735 49.0585 49.735 49.0576 49.735C 49.0568 49.735 49.0559 49.735 49.0549 49.735C 49.0539 49.735 49.0528 49.735 49.0516 49.735C 49.0504 49.735 49.0492 49.735 49.0478 49.735C 49.0465 49.735 49.0451 49.735 49.0435 49.735C 49.042 49.735 49.0405 49.735 49.0388 49.735C 49.0371 49.735 49.0354 49.735 49.0335 49.735C 49.0317 49.735 49.0298 49.735 49.0278 49.735C 49.0258 49.735 49.0237 49.735 49.0216 49.735C 49.0194 49.735 49.0172 49.735 49.0148 49.735C 49.0125 49.735 49.0101 49.735 49.0076 49.735C 49.0052 49.735 49.0026 49.735 49 49.735C 48.9973 49.735 48.9946 49.735 48.9918 49.735C 48.989 49.735 48.9861 49.735 48.9832 49.735C 48.9802 49.735 48.9772 49.735 48.974 49.735C 48.9709 49.735 48.9677 49.735 48.9645 49.735C 48.9612 49.735 48.9578 49.735 48.9544 49.735C 48.951 49.735 48.9475 49.735 48.9439 49.735C 48.9403 49.735 48.9366 49.735 48.9329 49.735C 48.9291 49.735 48.9253 49.735 48.9214 49.735C 48.9175 49.735 48.9135 49.735 48.9095 49.735C 48.9054 49.735 48.9013 49.735 48.8971 49.735C 48.8929 49.735 48.8886 49.735 48.8843 49.735C 48.8799 49.735 48.8755 49.735 48.871 49.735C 48.8664 49.735 48.8619 49.735 48.8572 49.735C 48.8525 49.735 48.8478 49.735 48.843 49.735C 48.8382 49.735 48.8333 49.735 48.8283 49.735C 48.8234 49.735 48.8183 49.735 48.8132 49.735C 48.8081 49.735 48.8029 49.735 48.7976 49.735C 48.7924 49.735 48.787 49.735 48.7816 49.735C 48.7762 49.735 48.7707 49.735 48.7652 49.735C 48.7596 49.735 48.754 49.735 48.7483 49.735C 48.7426 49.735 48.7368 49.735 48.7309 49.735C 48.7251 49.735 48.7192 49.735 48.7132 49.735C 48.7072 49.735 48.7011 49.735 48.695 49.735C 48.6888 49.735 48.6826 49.735 48.6763 49.735C 48.67 49.735 48.6637 49.735 48.6572 49.735C 48.6508 49.735 48.6443 49.735 48.6377 49.735C 48.6312 49.735 48.6245 49.735 48.6178 49.735C 48.6111 49.735 48.6043 49.735 48.5974 49.735C 48.5906 49.735 48.5836 49.735 48.5766 49.735C 48.5696 49.735 48.5626 49.735 48.5554 49.735C 48.5483 49.735 48.5411 49.735 48.5338 49.735C 48.5265 49.735 48.5192 49.735 48.5118 49.735C 48.5043 49.735 48.4969 49.735 48.4893 49.735C 48.4817 49.735 48.4741 49.735 48.4664 49.735C 48.4587 49.735 48.451 49.735 48.4431 49.735C 48.4353 49.735 48.4274 49.735 48.4194 49.735C 48.4115 49.735 48.4034 49.735 48.3953 49.735C 48.3872 49.735 48.379 49.735 48.3708 49.735C 48.3626 49.735 48.3543 49.735 48.3459 49.735C 48.3375 49.735 48.3291 49.735 48.3205 49.735C 48.312 49.735 48.3035 49.735 48.2948 49.735C 48.2862 49.735 48.2775 49.735 48.2687 49.735C 48.2599 49.735 48.2511 49.735 48.2422 49.735C 48.2333 49.735 48.2243 49.735 48.2153 49.735C 48.2062 49.735 48.1971 49.735 48.188 49.735C 48.1788 49.735 48.1695 49.735 48.1602 49.735C 48.1509 49.735 48.1416 49.735 48.1322 49.735C 48.1227 49.735 48.1132 49.735 48.1037 49.735C 48.0941 49.735 48.0845 49.735 48.0748 49.735C 48.0651 49.735 48.0554 49.735 48.0456 49.735C 48.0358 49.735 48.0259 49.735 48.0159 49.735C 48.006 49.735 47.996 49.735 47.9859 49.735C 47.9759 49.735 47.9657 49.735 47.9556 49.735C 47.9454 49.735 47.9351 49.735 47.9248 49.735C 47.9145 49.735 47.9041 49.735 47.8937 49.735C 47.8832 49.735 47.8727 49.735 47.8622 49.735C 47.8516 49.735 47.841 49.735 47.8303 49.735C 47.8196 49.735 47.8088 49.735 47.798 49.735C 47.7872 49.735 47.7764 49.735 47.7654 49.735C 47.7545 49.735 47.7435 49.735 47.7325 49.735C 47.7214 49.735 47.7103 49.735 47.6991 49.735C 47.688 49.735 47.6767 49.735 47.6654 49.735C 47.6541 49.735 47.6428 49.735 47.6314 49.735C 47.62 49.735 47.6085 49.735 47.597 49.735C 47.5855 49.735 47.5739 49.735 47.5622 49.735C 47.5506 49.735 47.5389 49.735 47.5271 49.735C 47.5153 49.735 47.5035 49.735 47.4916 49.735C 47.4798 49.735 47.4678 49.735 47.4558 49.735C 47.4438 49.735 47.4318 49.735 47.4197 49.735C 47.4076 49.735 47.3954 49.735 47.3832 49.735C 47.371 49.735 47.3587 49.735 47.3463 49.735C 47.334 49.735 47.3216 49.735 47.3092 49.735C 47.2967 49.735 47.2842 49.735 47.2716 49.735C 47.2591 49.735 47.2465 49.735 47.2338 49.735C 47.2211 49.735 47.2084 49.735 47.1956 49.735C 47.1828 49.735 47.17 49.735 47.1571 49.735C 47.1442 49.735 47.1312 49.735 47.1182 49.735C 47.1052 49.735 47.0922 49.735 47.079 49.735C 47.0659 49.735 47.0528 49.735 47.0395 49.735C 47.0263 49.735 47.013 49.735 46.9997 49.735C 46.9864 49.735 46.973 49.735 46.9595 49.735C 46.9461 49.735 46.9326 49.735 46.9191 49.735C 46.9055 49.735 46.8919 49.735 46.8783 49.735C 46.8646 49.735 46.8509 49.735 46.8372 49.735C 46.8234 49.735 46.8096 49.735 46.7957 49.735C 46.7819 49.735 46.768 49.735 46.754 49.735C 46.74 49.735 46.726 49.735 46.712 49.735C 46.6979 49.735 46.6838 49.735 46.6696 49.735C 46.6554 49.735 46.6412 49.735 46.6269 49.735C 46.6127 49.735 46.5984 49.735 46.584 49.735C 46.5696 49.735 46.5552 49.735 46.5407 49.735C 46.5262 49.735 46.5117 49.735 46.4971 49.735C 46.4826 49.735 46.4679 49.735 46.4533 49.735C 46.4386 49.735 46.4239 49.735 46.4091 49.735C 46.3943 49.735 46.3795 49.735 46.3646 49.735C 46.3498 49.735 46.3349 49.735 46.3199 49.735C 46.3049 49.735 46.2899 49.735 46.2748 49.735C 46.2598 49.735 46.2447 49.735 46.2295 49.735C 46.2143 49.735 46.1991 49.735 46.1839 49.735C 46.1686 49.735 46.1533 49.735 46.138 49.735C 46.1226 49.735 46.1072 49.735 46.0918 49.735C 46.0763 49.735 46.0608 49.735 46.0453 49.735C 46.0298 49.735 46.0142 49.735 45.9986 49.735C 45.9829 49.735 45.9673 49.735 45.9515 49.735C 45.9358 49.735 45.92 49.735 45.9042 49.735C 45.8884 49.735 45.8726 49.735 45.8566 49.735C 45.8407 49.735 45.8248 49.735 45.8088 49.735C 45.7928 49.735 45.7768 49.735 45.7607 49.735C 45.7446 49.735 45.7285 49.735 45.7123 49.735C 45.6961 49.735 45.6799 49.735 45.6636 49.735C 45.6474 49.735 45.6311 49.735 45.6147 49.735C 45.5984 49.735 45.582 49.735 45.5656 49.735C 45.5491 49.735 45.5326 49.735 45.5161 49.735C 45.4996 49.735 45.483 49.735 45.4664 49.735C 45.4498 49.735 45.4332 49.735 45.4165 49.735C 45.3998 49.735 45.383 49.735 45.3663 49.735C 45.3495 49.735 45.3327 49.735 45.3158 49.735C 45.299 49.735 45.2821 49.735 45.2651 49.735C 45.2482 49.735 45.2312 49.735 45.2142 49.735C 45.1971 49.735 45.1801 49.735 45.163 49.735C 45.1459 49.735 45.1287 49.735 45.1115 49.735C 45.0943 49.735 45.0771 49.735 45.0598 49.735C 45.0426 49.735 45.0253 49.735 45.0079 49.735C 44.9906 49.735 44.9732 49.735 44.9557 49.735C 44.9383 49.735 44.9208 49.735 44.9033 49.735C 44.8858 49.735 44.8683 49.735 44.8507 49.735C 44.8331 49.735 44.8155 49.735 44.7978 49.735C 44.7802 49.735 44.7625 49.735 44.7447 49.735C 44.727 49.735 44.7092 49.735 44.6914 49.735C 44.6736 49.735 44.6558 49.735 44.6379 49.735C 44.62 49.735 44.6021 49.735 44.5841 49.735C 44.5661 49.735 44.5481 49.735 44.5301 49.735C 44.5121 49.735 44.494 49.735 44.4759 49.735C 44.4578 49.735 44.4396 49.735 44.4214 49.735C 44.4033 49.735 44.385 49.735 44.3668 49.735C 44.3485 49.735 44.3303 49.735 44.3119 49.735C 44.2936 49.735 44.2752 49.735 44.2569 49.735C 44.2385 49.735 44.22 49.735 44.2016 49.735C 44.1831 49.735 44.1646 49.735 44.1461 49.735C 44.1275 49.735 44.109 49.735 44.0904 49.735C 44.0718 49.735 44.0531 49.735 44.0344 49.735C 44.0158 49.735 43.9971 49.735 43.9783 49.735C 43.9596 49.735 43.9408 49.735 43.922 49.735C 43.9032 49.735 43.8844 49.735 43.8655 49.735C 43.8466 49.735 43.8277 49.735 43.8088 49.735C 43.7899 49.735 43.7709 49.735 43.7519 49.735C 43.7329 49.735 43.7139 49.735 43.6948 49.735C 43.6757 49.735 43.6566 49.735 43.6375 49.735C 43.6184 49.735 43.5992 49.735 43.58 49.735C 43.5608 49.735 43.5416 49.735 43.5224 49.735C 43.5031 49.735 43.4838 49.735 43.4645 49.735C 43.4452 49.735 43.4259 49.735 43.4065 49.735C 43.3871 49.735 43.3677 49.735 43.3483 49.735C 43.3288 49.735 43.3094 49.735 43.2899 49.735C 43.2704 49.735 43.2509 49.735 43.2313 49.735C 43.2117 49.735 43.1922 49.735 43.1726 49.735C 43.1529 49.735 43.1333 49.735 43.1136 49.735C 43.094 49.735 43.0743 49.735 43.0545 49.735C 43.0348 49.735 43.0151 49.735 42.9953 49.735C 42.9755 49.735 42.9557 49.735 42.9359 49.735C 42.916 49.735 42.8962 49.735 42.8763 49.735C 42.8564 49.735 42.8364 49.735 42.8165 49.735C 42.7966 49.735 42.7766 49.735 42.7566 49.735C 42.7366 49.735 42.7166 49.735 42.6965 49.735C 42.6765 49.735 42.6564 49.735 42.6363 49.735C 42.6162 49.735 42.596 49.735 42.5759 49.735C 42.5557 49.735 42.5355 49.735 42.5153 49.735C 42.4951 49.735 42.4749 49.735 42.4546 49.735C 42.4344 49.735 42.4141 49.735 42.3938 49.735C 42.3735 49.735 42.3532 49.735 42.3328 49.735C 42.3124 49.735 42.2921 49.735 42.2717 49.735C 42.2513 49.735 42.2308 49.735 42.2104 49.735C 42.1899 49.735 42.1694 49.735 42.1489 49.735C 42.1284 49.735 42.1079 49.735 42.0874 49.735C 42.0668 49.735 42.0463 49.735 42.0257 49.735C 42.0051 49.735 41.9845 49.735 41.9638 49.735C 41.9432 49.735 41.9225 49.735 41.9019 49.735C 41.8812 49.735 41.8605 49.735 41.8398 49.735C 41.819 49.735 41.7983 49.735 41.7775 49.735C 41.7567 49.735 41.736 49.735 41.7151 49.735C 41.6943 49.735 41.6735 49.735 41.6527 49.735C 41.6318 49.735 41.6109 49.735 41.59 49.735C 41.5691 49.735 41.5482 49.735 41.5273 49.735C 41.5064 49.735 41.4854 49.735 41.4644 49.735C 41.4435 49.735 41.4225 49.735 41.4015 49.735C 41.3805 49.735 41.3594 49.735 41.3384 49.735C 41.3173 49.735 41.2963 49.735 41.2752 49.735C 41.2541 49.735 41.233 49.735 41.2118 49.735C 41.1907 49.735 41.1696 49.735 41.1484 49.735C 41.1273 49.735 41.1061 49.735 41.0849 49.735C 41.0637 49.735 41.0425 49.735 41.0212 49.735C 41 49.735 40.9787 49.735 40.9575 49.735C 40.9362 49.735 40.9149 49.735 40.8936 49.735C 40.8723 49.735 40.851 49.735 40.8297 49.735C 40.8083 49.735 40.787 49.735 40.7656 49.735C 40.7442 49.735 40.7229 49.735 40.7015 49.735C 40.6801 49.735 40.6586 49.735 40.6372 49.735C 40.6158 49.735 40.5943 49.735 40.5729 49.735C 40.5514 49.735 40.5299 49.735 40.5085 49.735C 40.487 49.735 40.4655 49.735 40.4439 49.735C 40.4224 49.735 40.4009 49.735 40.3793 49.735C 40.3578 49.735 40.3362 49.735 40.3146 49.735C 40.2931 49.735 40.2715 49.735 40.2499 49.735C 40.2283 49.735 40.2066 49.735 40.185 49.735C 40.1634 49.735 40.1417 49.735 40.1201 49.735C 40.0984 49.735 40.0767 49.735 40.0551 49.735C 40.0334 49.735 40.0117 49.735 39.99 49.735C 39.9683 49.735 39.9466 49.735 39.9248 49.735C 39.9031 49.735 39.8813 49.735 39.8596 49.735C 39.8378 49.735 39.8161 49.735 39.7943 49.735C 39.7725 49.735 39.7507 49.735 39.7289 49.735C 39.7071 49.735 39.6853 49.735 39.6635 49.735C 39.6417 49.735 39.6198 49.735 39.598 49.735C 39.5761 49.735 39.5543 49.735 39.5324 49.735C 39.5106 49.735 39.4887 49.735 39.4668 49.735C 39.4449 49.735 39.423 49.735 39.4011 49.735C 39.3792 49.735 39.3573 49.735 39.3354 49.735C 39.3135 49.735 39.2916 49.735 39.2696 49.735C 39.2477 49.735 39.2257 49.735 39.2038 49.735C 39.1818 49.735 39.1599 49.735 39.1379 49.735C 39.1159 49.735 39.094 49.735 39.072 49.735C 39.05 49.735 39.028 49.735 39.006 49.735C 38.984 49.735 38.962 49.735 38.94 49.735C 38.9179 49.735 38.8959 49.735 38.8739 49.735C 38.8519 49.735 38.8298 49.735 38.8078 49.735C 38.7857 49.735 38.7637 49.735 38.7416 49.735C 38.7196 49.735 38.6975 49.735 38.6755 49.735C 38.6534 49.735 38.6313 49.735 38.6093 49.735C 38.5872 49.735 38.5651 49.735 38.543 49.735C 38.5209 49.735 38.4988 49.735 38.4767 49.735C 38.4546 49.735 38.4325 49.735 38.4104 49.735C 38.3883 49.735 38.3662 49.735 38.3441 49.735C 38.322 49.735 38.2999 49.735 38.2777 49.735C 38.2556 49.735 38.2335 49.735 38.2114 49.735C 38.1892 49.735 38.1671 49.735 38.145 49.735C 38.1228 49.735 38.1007 49.735 38.0785 49.735C 38.0564 49.735 38.0343 49.735 38.0121 49.735C 37.99 49.735 37.9678 49.735 37.9457 49.735C 37.9235 49.735 37.9014 49.735 37.8792 49.735C 37.8571 49.735 37.8349 49.735 37.8127 49.735C 37.7906 49.735 37.7684 49.735 37.7463 49.735C 37.7241 49.735 37.7019 49.735 37.6798 49.735C 37.6576 49.735 37.6354 49.735 37.6133 49.735C 37.5911 49.735 37.569 49.735 37.5468 49.735C 37.5246 49.735 37.5025 49.735 37.4803 49.735C 37.4581 49.735 37.436 49.735 37.4138 49.735C 37.3916 49.735 37.3695 49.735 37.3473 49.735C 37.3252 49.735 37.303 49.735 37.2808 49.735C 37.2587 49.735 37.2365 49.735 37.2144 49.735C 37.1922 49.735 37.17 49.735 37.1479 49.735C 37.1257 49.735 37.1036 49.735 37.0814 49.735C 37.0593 49.735 37.0371 49.735 37.015 49.735C 36.9928 49.735 36.9707 49.735 36.9486 49.735C 36.9264 49.735 36.9043 49.735 36.8821 49.735C 36.86 49.735 36.8379 49.735 36.8158 49.735C 36.7936 49.735 36.7715 49.735 36.7494 49.735C 36.7273 49.735 36.7052 49.735 36.683 49.735C 36.6609 49.735 36.6388 49.735 36.6167 49.735C 36.5946 49.735 36.5725 49.735 36.5504 49.735C 36.5283 49.735 36.5062 49.735 36.4841 49.735C 36.4621 49.735 36.44 49.735 36.4179 49.735C 36.3958 49.735 36.3738 49.735 36.3517 49.735C 36.3296 49.735 36.3076 49.735 36.2855 49.735C 36.2635 49.735 36.2414 49.735 36.2194 49.735C 36.1974 49.735 36.1753 49.735 36.1533 49.735C 36.1313 49.735 36.1093 49.735 36.0872 49.735C 36.0652 49.735 36.0432 49.735 36.0212 49.735C 35.9992 49.735 35.9772 49.735 35.9553 49.735C 35.9333 49.735 35.9113 49.735 35.8893 49.735C 35.8674 49.735 35.8454 49.735 35.8235 49.735C 35.8015 49.735 35.7796 49.735 35.7576 49.735C 35.7357 49.735 35.7138 49.735 35.6919 49.735C 35.67 49.735 35.648 49.735 35.6262 49.735C 35.6043 49.735 35.5824 49.735 35.5605 49.735C 35.5386 49.735 35.5167 49.735 35.4949 49.735C 35.473 49.735 35.4512 49.735 35.4293 49.735C 35.4075 49.735 35.3857 49.735 35.3639 49.735C 35.342 49.735 35.3202 49.735 35.2984 49.735C 35.2766 49.735 35.2549 49.735 35.2331 49.735C 35.2113 49.735 35.1896 49.735 35.1678 49.735C 35.1461 49.735 35.1243 49.735 35.1026 49.735C 35.0809 49.735 35.0592 49.735 35.0375 49.735C 35.0158 49.735 34.9941 49.735 34.9724 49.735C 34.9507 49.735 34.929 49.735 34.9074 49.735C 34.8857 49.735 34.8641 49.735 34.8425 49.735C 34.8209 49.735 34.7992 49.735 34.7776 49.735C 34.7561 49.735 34.7345 49.735 34.7129 49.735C 34.6913 49.735 34.6698 49.735 34.6482 49.735C 34.6267 49.735 34.6052 49.735 34.5836 49.735C 34.5621 49.735 34.5406 49.735 34.5191 49.735C 34.4977 49.735 34.4762 49.735 34.4547 49.735C 34.4333 49.735 34.4118 49.735 34.3904 49.735C 34.369 49.735 34.3476 49.735 34.3262 49.735C 34.3048 49.735 34.2834 49.735 34.2621 49.735C 34.2407 49.735 34.2194 49.735 34.198 49.735C 34.1767 49.735 34.1554 49.735 34.1341 49.735C 34.1128 49.735 34.0915 49.735 34.0703 49.735C 34.049 49.735 34.0278 49.735 34.0066 49.735C 33.9853 49.735 33.9641 49.735 33.9429 49.735C 33.9218 49.735 33.9006 49.735 33.8794 49.735C 33.8583 49.735 33.8371 49.735 33.816 49.735C 33.7949 49.735 33.7738 49.735 33.7527 49.735C 33.7317 49.735 33.7106 49.735 33.6896 49.735C 33.6685 49.735 33.6475 49.735 33.6265 49.735C 33.6055 49.735 33.5845 49.735 33.5635 49.735C 33.5426 49.735 33.5216 49.735 33.5007 49.735C 33.4798 49.735 33.4589 49.735 33.438 49.735C 33.4171 49.735 33.3963 49.735 33.3754 49.735C 33.3546 49.735 33.3338 49.735 33.313 49.735C 33.2922 49.735 33.2714 49.735 33.2506 49.735C 33.2299 49.735 33.2091 49.735 33.1884 49.735C 33.1677 49.735 33.147 49.735 33.1263 49.735C 33.1057 49.735 33.085 49.735 33.0644 49.735C 33.0438 49.735 33.0232 49.735 33.0026 49.735C 32.982 49.735 32.9615 49.735 32.9409 49.735C 32.9204 49.735 32.8999 49.735 32.8794 49.735C 32.8589 49.735 32.8384 49.735 32.818 49.735C 32.7976 49.735 32.7771 49.735 32.7568 49.735C 32.7364 49.735 32.716 49.735 32.6957 49.735C 32.6753 49.735 32.655 49.735 32.6347 49.735C 32.6144 49.735 32.5941 49.735 32.5739 49.735C 32.5536 49.735 32.5334 49.735 32.5132 49.735C 32.493 49.735 32.4729 49.735 32.4527 49.735C 32.4326 49.735 32.4125 49.735 32.3924 49.735C 32.3723 49.735 32.3522 49.735 32.3322 49.735C 32.3121 49.735 32.2921 49.735 32.2721 49.735C 32.2521 49.735 32.2322 49.735 32.2122 49.735C 32.1923 49.735 32.1724 49.735 32.1525 49.735C 32.1327 49.735 32.1128 49.735 32.093 49.735C 32.0732 49.735 32.0534 49.735 32.0336 49.735C 32.0138 49.735 31.9941 49.735 31.9744 49.735C 31.9547 49.735 31.935 49.735 31.9153 49.735C 31.8957 49.735 31.876 49.735 31.8565 49.735C 31.8369 49.735 31.8173 49.735 31.7977 49.735C 31.7782 49.735 31.7587 49.735 31.7392 49.735C 31.7197 49.735 31.7003 49.735 31.6809 49.735C 31.6615 49.735 31.6421 49.735 31.6227 49.735C 31.6033 49.735 31.584 49.735 31.5647 49.735C 31.5454 49.735 31.5261 49.735 31.5069 49.735C 31.4877 49.735 31.4685 49.735 31.4493 49.735C 31.4301 49.735 31.411 49.735 31.3919 49.735C 31.3728 49.735 31.3537 49.735 31.3346 49.735C 31.3156 49.735 31.2966 49.735 31.2776 49.735C 31.2586 49.735 31.2396 49.735 31.2207 49.735C 31.2018 49.735 31.1829 49.735 31.1641 49.735C 31.1452 49.735 31.1264 49.735 31.1076 49.735C 31.0888 49.735 31.07 49.735 31.0513 49.735C 31.0326 49.735 31.0139 49.735 30.9953 49.735C 30.9766 49.735 30.958 49.735 30.9394 49.735C 30.9208 49.735 30.9023 49.735 30.8837 49.735C 30.8652 49.735 30.8468 49.735 30.8283 49.735C 30.8099 49.735 30.7914 49.735 30.7731 49.735C 30.7547 49.735 30.7363 49.735 30.718 49.735C 30.6997 49.735 30.6815 49.735 30.6632 49.735C 30.645 49.735 30.6268 49.735 30.6086 49.735C 30.5905 49.735 30.5723 49.735 30.5542 49.735C 30.5362 49.735 30.5181 49.735 30.5001 49.735C 30.4821 49.735 30.4641 49.735 30.4461 49.735C 30.4282 49.735 30.4103 49.735 30.3924 49.735C 30.3745 49.735 30.3567 49.735 30.3389 49.735C 30.3211 49.735 30.3034 49.735 30.2857 49.735C 30.2679 49.735 30.2503 49.735 30.2326 49.735C 30.215 49.735 30.1974 49.735 30.1798 49.735C 30.1622 49.735 30.1447 49.735 30.1272 49.735C 30.1097 49.735 30.0923 49.735 30.0749 49.735C 30.0575 49.735 30.0401 49.735 30.0228 49.735C 30.0055 49.735 29.9882 49.735 29.9709 49.735C 29.9537 49.735 29.9365 49.735 29.9193 49.735C 29.9021 49.735 29.885 49.735 29.8679 49.735C 29.8508 49.735 29.8338 49.735 29.8168 49.735C 29.7998 49.735 29.7828 49.735 29.7659 49.735C 29.749 49.735 29.7321 49.735 29.7152 49.735C 29.6984 49.735 29.6816 49.735 29.6649 49.735C 29.6481 49.735 29.6314 49.735 29.6147 49.735C 29.598 49.735 29.5814 49.735 29.5648 49.735C 29.5482 49.735 29.5317 49.735 29.5152 49.735C 29.4987 49.735 29.4822 49.735 29.4658 49.735C 29.4494 49.735 29.433 49.735 29.4167 49.735C 29.4004 49.735 29.3841 49.735 29.3679 49.735C 29.3516 49.735 29.3354 49.735 29.3193 49.735C 29.3031 49.735 29.287 49.735 29.271 49.735C 29.2549 49.735 29.2389 49.735 29.2229 49.735C 29.2069 49.735 29.191 49.735 29.1751 49.735C 29.1592 49.735 29.1434 49.735 29.1276 49.735C 29.1118 49.735 29.0961 49.735 29.0804 49.735C 29.0647 49.735 29.049 49.735 29.0334 49.735C 29.0178 49.735 29.0023 49.735 28.9867 49.735C 28.9712 49.735 28.9558 49.735 28.9403 49.735C 28.9249 49.735 28.9095 49.735 28.8942 49.735C 28.8789 49.735 28.8636 49.735 28.8484 49.735C 28.8331 49.735 28.818 49.735 28.8028 49.735C 28.7877 49.735 28.7726 49.735 28.7576 49.735C 28.7425 49.735 28.7275 49.735 28.7126 49.735C 28.6976 49.735 28.6828 49.735 28.6679 49.735C 28.6531 49.735 28.6383 49.735 28.6235 49.735C 28.6088 49.735 28.5941 49.735 28.5794 49.735C 28.5648 49.735 28.5502 49.735 28.5356 49.735C 28.5211 49.735 28.5066 49.735 28.4921 49.735C 28.4777 49.735 28.4633 49.735 28.4489 49.735C 28.4346 49.735 28.4203 49.735 28.406 49.735C 28.3918 49.735 28.3776 49.735 28.3635 49.735C 28.3493 49.735 28.3352 49.735 28.3212 49.735C 28.3071 49.735 28.2931 49.735 28.2792 49.735C 28.2653 49.735 28.2514 49.735 28.2376 49.735C 28.2237 49.735 28.2099 49.735 28.1962 49.735C 28.1825 49.735 28.1688 49.735 28.1552 49.735C 28.1416 49.735 28.128 49.735 28.1145 49.735C 28.1009 49.735 28.0875 49.735 28.0741 49.735C 28.0607 49.735 28.0473 49.735 28.034 49.735C 28.0207 49.735 28.0074 49.735 27.9942 49.735C 27.981 49.735 27.9679 49.735 27.9548 49.735C 27.9417 49.735 27.9287 49.735 27.9157 49.735C 27.9027 49.735 27.8898 49.735 27.8769 49.735C 27.8641 49.735 27.8513 49.735 27.8385 49.735C 27.8258 49.735 27.813 49.735 27.8004 49.735C 27.7878 49.735 27.7752 49.735 27.7626 49.735C 27.7501 49.735 27.7376 49.735 27.7252 49.735C 27.7128 49.735 27.7004 49.735 27.6881 49.735C 27.6758 49.735 27.6635 49.735 27.6513 49.735C 27.6391 49.735 27.627 49.735 27.6149 49.735C 27.6028 49.735 27.5908 49.735 27.5789 49.735C 27.5669 49.735 27.555 49.735 27.5431 49.735C 27.5313 49.735 27.5195 49.735 27.5078 49.735C 27.496 49.735 27.4844 49.735 27.4727 49.735C 27.4611 49.735 27.4496 49.735 27.4381 49.735C 27.4266 49.735 27.4151 49.735 27.4037 49.735C 27.3924 49.735 27.381 49.735 27.3698 49.735C 27.3585 49.735 27.3473 49.735 27.3362 49.735C 27.325 49.735 27.314 49.735 27.3029 49.735C 27.2919 49.735 27.281 49.735 27.2701 49.735C 27.2592 49.735 27.2483 49.735 27.2375 49.735C 27.2268 49.735 27.216 49.735 27.2054 49.735C 27.1947 49.735 27.1841 49.735 27.1736 49.735C 27.1631 49.735 27.1526 49.735 27.1422 49.735C 27.1318 49.735 27.1214 49.735 27.1112 49.735C 27.1009 49.735 27.0907 49.735 27.0805 49.735C 27.0703 49.735 27.0602 49.735 27.0502 49.735C 27.0402 49.735 27.0302 49.735 27.0203 49.735C 27.0104 49.735 27.0005 49.735 26.9908 49.735C 26.981 49.735 26.9713 49.735 26.9616 49.735C 26.952 49.735 26.9424 49.735 26.9328 49.735C 26.9233 49.735 26.9139 49.735 26.9045 49.735C 26.8951 49.735 26.8857 49.735 26.8765 49.735C 26.8672 49.735 26.858 49.735 26.8489 49.735C 26.8397 49.735 26.8307 49.735 26.8216 49.735C 26.8126 49.735 26.8037 49.735 26.7948 49.735C 26.786 49.735 26.7771 49.735 26.7684 49.735C 26.7597 49.735 26.751 49.735 26.7424 49.735C 26.7338 49.735 26.7252 49.735 26.7168 49.735C 26.7083 49.735 26.6999 49.735 26.6915 49.735C 26.6832 49.735 26.6749 49.735 26.6667 49.735C 26.6585 49.735 26.6504 49.735 26.6423 49.735C 26.6342 49.735 26.6262 49.735 26.6183 49.735C 26.6103 49.735 26.6025 49.735 26.5947 49.735C 26.5869 49.735 26.5791 49.735 26.5715 49.735C 26.5638 49.735 26.5562 49.735 26.5487 49.735C 26.5412 49.735 26.5337 49.735 26.5264 49.735C 26.519 49.735 26.5117 49.735 26.5044 49.735C 26.4972 49.735 26.49 49.735 26.4829 49.735C 26.4758 49.735 26.4687 49.735 26.4618 49.735C 26.4548 49.735 26.4479 49.735 26.4411 49.735C 26.4343 49.735 26.4275 49.735 26.4208 49.735C 26.4142 49.735 26.4076 49.735 26.401 49.735C 26.3945 49.735 26.388 49.735 26.3816 49.735C 26.3752 49.735 26.3689 49.735 26.3626 49.735C 26.3564 49.735 26.3502 49.735 26.3441 49.735C 26.338 49.735 26.332 49.735 26.326 49.735C 26.32 49.735 26.3142 49.735 26.3083 49.735C 26.3025 49.735 26.2968 49.735 26.2911 49.735C 26.2854 49.735 26.2799 49.735 26.2743 49.735C 26.2688 49.735 26.2634 49.735 26.258 49.735C 26.2526 49.735 26.2473 49.735 26.2421 49.735C 26.2369 49.735 26.2317 49.735 26.2266 49.735C 26.2216 49.735 26.2166 49.735 26.2116 49.735C 26.2067 49.735 26.2019 49.735 26.1971 49.735C 26.1923 49.735 26.1876 49.735 26.183 49.735C 26.1784 49.735 26.1738 49.735 26.1693 49.735C 26.1649 49.735 26.1605 49.735 26.1561 49.735C 26.1518 49.735 26.1476 49.735 26.1434 49.735C 26.1392 49.735 26.1352 49.735 26.1311 49.735C 26.1271 49.735 26.1232 49.735 26.1193 49.735C 26.1155 49.735 26.1117 49.735 26.108 49.735C 26.1043 49.735 26.1007 49.735 26.0971 49.735C 26.0936 49.735 26.0901 49.735 26.0867 49.735C 26.0833 49.735 26.08 49.735 26.0768 49.735C 26.0735 49.735 26.0704 49.735 26.0673 49.735C 26.0642 49.735 26.0612 49.735 26.0583 49.735C 26.0554 49.735 26.0525 49.735 26.0498 49.735C 26.047 49.735 26.0443 49.735 26.0417 49.735C 26.0391 49.735 26.0366 49.735 26.0342 49.735C 26.0317 49.735 26.0294 49.735 26.0271 49.735C 26.0248 49.735 26.0226 49.735 26.0205 49.735C 26.0184 49.735 26.0163 49.735 26.0144 49.735C 26.0124 49.735 26.0106 49.735 26.0088 49.735C 26.007 49.735 26.0053 49.735 26.0036 49.735C 26.002 49.735 26.0005 49.735 25.999 49.735L 25.999 55.735ZM 49.2987 55.7258C 64.6136 54.524 78.195 42.0247 78.195 26.351L 72.195 26.351C 72.195 38.4133 61.5244 48.748 48.8293 49.7442L 49.2987 55.7258ZM 78.195 26.351C 78.195 10.1606 65.8297 -2.968 49.064 -2.968L 49.064 3.032C 62.3923 3.032 72.195 13.3494 72.195 26.351L 78.195 26.351ZM 49.064 0.0319982C 49.0737 -2.96799 49.0736 -2.96799 49.0734 -2.96799C 49.0733 -2.96799 49.073 -2.96799 49.0727 -2.96799C 49.072 -2.96799 49.071 -2.96799 49.0696 -2.968C 49.0669 -2.96801 49.0629 -2.96802 49.0575 -2.96804C 49.0468 -2.96807 49.0308 -2.96812 49.0097 -2.96819C 48.9675 -2.96833 48.905 -2.96852 48.8234 -2.96878C 48.6601 -2.96929 48.4206 -2.97003 48.1156 -2.97094C 47.5055 -2.97277 46.633 -2.9753 45.5836 -2.97812C 43.4847 -2.98374 40.6774 -2.9905 37.8441 -2.995C 35.0115 -2.9995 32.1503 -3.00176 29.9447 -2.99837C 27.8722 -2.9952 26.112 -2.98943 25.7369 -2.95653L 26.2611 3.02053C 26.2079 3.02519 26.4699 3.01682 27.2473 3.01125C 27.9256 3.00639 28.8551 3.0033 29.9539 3.00162C 32.1499 2.99825 35.0036 3.0005 37.8346 3.00499C 40.6649 3.00949 43.4699 3.01624 45.5675 3.02186C 46.6162 3.02467 47.488 3.0272 48.0976 3.02903C 48.4024 3.02995 48.6416 3.03068 48.8046 3.03119C 48.8861 3.03145 48.9486 3.03164 48.9906 3.03178C 49.0116 3.03185 49.0276 3.0319 49.0382 3.03193C 49.0436 3.03195 49.0476 3.03196 49.0503 3.03197C 49.0516 3.03197 49.0526 3.03198 49.0533 3.03198C 49.0536 3.03198 49.0539 3.03198 49.054 3.03198C 49.0542 3.03198 49.0543 3.03198 49.064 0.0319982ZM 25.7359 -2.95644C 10.587 -1.62264 -3.00001 10.751 -3.00001 26.351L 2.99999 26.351C 2.99999 14.391 13.653 4.13063 26.2621 3.02044L 25.7359 -2.95644Z"/>
<path id="path2_fill" d="M -1.36719e-05 14.161L -1.36719e-05 28.322C 0.00198633 28.319 14.161 28.322 14.161 28.322C 21.982 28.335 28.322 21.982 28.322 14.161C 28.322 6.34 21.982 1.31226e-06 14.161 1.31226e-06C 6.34 1.31226e-06 -1.36719e-05 6.34 -1.36719e-05 14.161Z"/>
<path id="path3_stroke" d="M -1.36719e-05 28.322L -3.00001 28.322L -3.00001 38.2303L 2.49614 29.9861L -1.36719e-05 28.322ZM 14.161 28.322L 14.166 25.322L 14.1616 25.322L 14.161 28.322ZM -3.00001 14.161L -3.00001 28.322L 2.99999 28.322L 2.99999 14.161L -3.00001 14.161ZM 2.49614 29.9861C 1.54656 30.8926 0.228491 31.3133 0.156084 31.3179C 0.130692 31.3191 0.0923705 31.3206 0.0796144 31.3209C 0.0596005 31.3215 0.0441936 31.3216 0.0419827 31.3217C 0.0333247 31.3218 0.0277465 31.3218 0.0296416 31.3218C 0.0312429 31.3218 0.037315 31.3218 0.0499819 31.3217C 0.0742033 31.3217 0.111949 31.3216 0.163478 31.3215C 0.265975 31.3214 0.417143 31.3212 0.61063 31.3211C 0.997323 31.3209 1.55006 31.3208 2.21381 31.3207C 3.54116 31.3206 5.31097 31.3207 7.08092 31.3209C 8.85083 31.3211 10.6207 31.3213 11.9481 31.3216C 12.6118 31.3217 13.1649 31.3218 13.552 31.3219C 13.7456 31.3219 13.8977 31.322 14.0014 31.322C 14.0532 31.322 14.093 31.322 14.1198 31.322C 14.1331 31.322 14.1433 31.322 14.1501 31.322C 14.1535 31.322 14.1561 31.322 14.1578 31.322C 14.1586 31.322 14.1593 31.322 14.1597 31.322C 14.1599 31.322 14.1601 31.322 14.1602 31.322C 14.1603 31.322 14.1604 31.322 14.161 28.322C 14.1616 25.322 14.1616 25.322 14.1615 25.322C 14.1614 25.322 14.1612 25.322 14.161 25.322C 14.1606 25.322 14.1599 25.322 14.1591 25.322C 14.1573 25.322 14.1548 25.322 14.1514 25.322C 14.1446 25.322 14.1344 25.322 14.121 25.322C 14.0942 25.322 14.0545 25.322 14.0026 25.322C 13.8989 25.322 13.7468 25.3219 13.5532 25.3219C 13.166 25.3218 12.6129 25.3217 11.9492 25.3216C 10.6217 25.3213 8.85166 25.3211 7.08156 25.3209C 5.31151 25.3207 3.54119 25.3206 2.21317 25.3207C 1.54923 25.3208 0.995464 25.3209 0.607453 25.3211C 0.413589 25.3212 0.260353 25.3214 0.155223 25.3215C 0.102939 25.3216 0.0610649 25.3217 0.0315887 25.3218C 0.0174068 25.3218 0.00311072 25.3219 -0.0089597 25.3219C -0.0139004 25.322 -0.0246403 25.322 -0.0367589 25.3222C -0.0407 25.3222 -0.0574119 25.3225 -0.0783022 25.323C -0.0914963 25.3234 -0.130148 25.3248 -0.155764 25.326C -0.228395 25.3307 -1.54658 25.7514 -2.49616 26.6579L 2.49614 29.9861ZM 14.156 31.322C 23.6423 31.3378 31.322 23.6343 31.322 14.161L 25.322 14.161C 25.322 20.3297 20.3217 25.3322 14.166 25.322L 14.156 31.322ZM 31.322 14.161C 31.322 4.68314 23.6388 -3 14.161 -3L 14.161 3C 20.3251 3 25.322 7.99686 25.322 14.161L 31.322 14.161ZM 14.161 -3C 4.68315 -3 -3.00001 4.68314 -3.00001 14.161L 2.99999 14.161C 2.99999 7.99686 7.99685 3 14.161 3L 14.161 -3Z"/>
<path id="path4_fill" d="M 28.322 14.161L 28.322 28.322C 28.32 28.319 14.161 28.322 14.161 28.322C 6.34001 28.335 -4.63867e-06 21.982 -4.63867e-06 14.161C -4.63867e-06 6.34 6.34001 1.31226e-06 14.161 1.31226e-06C 21.982 1.31226e-06 28.322 6.34 28.322 14.161Z"/>
<path id="path5_stroke" d="M 28.322 28.322L 25.8258 29.9861L 31.322 38.2303L 31.322 28.322L 28.322 28.322ZM 14.161 28.322L 14.1604 25.322L 14.156 25.322L 14.161 28.322ZM 25.322 14.161L 25.322 28.322L 31.322 28.322L 31.322 14.161L 25.322 14.161ZM 30.8181 26.6579C 29.8686 25.7514 28.5504 25.3307 28.4777 25.326C 28.4521 25.3248 28.4135 25.3234 28.4003 25.323C 28.3794 25.3225 28.3627 25.3222 28.3587 25.3222C 28.3466 25.322 28.3359 25.322 28.3309 25.3219C 28.3189 25.3219 28.3046 25.3218 28.2904 25.3218C 28.2609 25.3217 28.219 25.3216 28.1667 25.3215C 28.0616 25.3214 27.9084 25.3212 27.7145 25.3211C 27.3265 25.3209 26.7727 25.3208 26.1088 25.3207C 24.7808 25.3206 23.0105 25.3207 21.2404 25.3209C 19.4703 25.3211 17.7003 25.3213 16.3728 25.3216C 15.7091 25.3217 15.156 25.3218 14.7688 25.3219C 14.5752 25.3219 14.4231 25.322 14.3194 25.322C 14.2675 25.322 14.2278 25.322 14.201 25.322C 14.1876 25.322 14.1774 25.322 14.1706 25.322C 14.1672 25.322 14.1647 25.322 14.163 25.322C 14.1621 25.322 14.1614 25.322 14.161 25.322C 14.1608 25.322 14.1606 25.322 14.1605 25.322C 14.1604 25.322 14.1604 25.322 14.161 28.322C 14.1616 31.322 14.1617 31.322 14.1618 31.322C 14.1619 31.322 14.1621 31.322 14.1623 31.322C 14.1627 31.322 14.1634 31.322 14.1642 31.322C 14.1659 31.322 14.1685 31.322 14.1719 31.322C 14.1787 31.322 14.1889 31.322 14.2022 31.322C 14.229 31.322 14.2688 31.322 14.3206 31.322C 14.4243 31.322 14.5764 31.3219 14.77 31.3219C 15.1571 31.3218 15.7102 31.3217 16.3739 31.3216C 17.7013 31.3213 19.4712 31.3211 21.2411 31.3209C 23.011 31.3207 24.7808 31.3206 26.1082 31.3207C 26.7719 31.3208 27.3247 31.3209 27.7113 31.3211C 27.9048 31.3212 28.056 31.3214 28.1585 31.3215C 28.21 31.3216 28.2478 31.3217 28.272 31.3217C 28.2847 31.3218 28.2907 31.3218 28.2923 31.3218C 28.2942 31.3218 28.2886 31.3218 28.28 31.3217C 28.2778 31.3216 28.2624 31.3215 28.2424 31.3209C 28.2296 31.3206 28.1913 31.3191 28.1659 31.3179C 28.0935 31.3133 26.7754 30.8926 25.8258 29.9861L 30.8181 26.6579ZM 14.156 25.322C 8.00031 25.3322 3 20.3297 3 14.161L -3 14.161C -3 23.6343 4.6797 31.3378 14.166 31.322L 14.156 25.322ZM 3 14.161C 3 7.99686 7.99686 3 14.161 3L 14.161 -3C 4.68316 -3 -3 4.68314 -3 14.161L 3 14.161ZM 14.161 3C 20.3251 3 25.322 7.99685 25.322 14.161L 31.322 14.161C 31.322 4.68315 23.6389 -3 14.161 -3L 14.161 3Z"/>
<path id="path6_fill" d="M 4.57299 9.146C 7.09859 9.146 9.14599 7.09859 9.14599 4.573C 9.14599 2.0474 7.09859 0 4.57299 0C 2.0474 0 -4.15039e-06 2.0474 -4.15039e-06 4.573C -4.15039e-06 7.09859 2.0474 9.146 4.57299 9.146Z"/>
<path id="path7_stroke" d="M 3.90625e-06 2L 13.184 2L 13.184 -2L 3.90625e-06 -2L 3.90625e-06 2Z"/>
<path id="path8_fill" d="M 5.99999 0L -1.36719e-05 0L -1.36719e-05 52.735L 5.99999 52.735L 5.99999 0Z"/>
<path id="path9_fill" d="M 5.99999 0L -1.24512e-05 0L -1.24512e-05 52.735L 5.99999 52.735L 5.99999 0Z"/>
<path id="path10_stroke" d="M -6.10352e-06 4.28516C 1.18388 5.89712 1.18332 5.89754 1.18279 5.89792C 1.18267 5.89801 1.18218 5.89837 1.18192 5.89856C 1.18142 5.89893 1.18106 5.89919 1.18084 5.89935C 1.18042 5.89966 1.18058 5.89954 1.18132 5.89901C 1.18279 5.89793 1.18659 5.89519 1.19267 5.89084C 1.20482 5.88214 1.22609 5.86703 1.25617 5.84608C 1.31635 5.80415 1.41167 5.73894 1.53973 5.65491C 1.79609 5.48669 2.18225 5.24402 2.6792 4.9624C 3.67631 4.39733 5.10172 3.68551 6.80574 3.10094C 10.2369 1.92388 14.6015 1.3243 18.8958 3.21293L 20.5062 -0.448603C 14.9505 -2.89197 9.46466 -2.04005 5.50777 -0.682613C 3.51778 6.47552e-05 1.86481 0.82625 0.707042 1.48237C 0.126554 1.81134 -0.333851 2.10006 -0.654697 2.31059C -0.815235 2.41593 -0.941182 2.50192 -1.03011 2.56386C -1.07458 2.59484 -1.10984 2.61983 -1.13556 2.63824C -1.14842 2.64745 -1.1589 2.65502 -1.16697 2.66087C -1.17101 2.66379 -1.17444 2.66629 -1.17726 2.66835C -1.17867 2.66938 -1.17993 2.6703 -1.18103 2.67111C -1.18159 2.67151 -1.1823 2.67204 -1.18258 2.67224C -1.18326 2.67274 -1.18389 2.67321 -6.10352e-06 4.28516Z"/>
<path id="path11_fill" d="M 3.3916 11.5562C 3.3916 10.508 3.51888 9.67318 3.77344 9.05176C 4.02799 8.43034 4.49219 7.82015 5.16602 7.22119C 5.84733 6.61475 6.30029 6.12435 6.5249 5.75C 6.74951 5.36816 6.86182 4.96761 6.86182 4.54834C 6.86182 3.28304 6.27783 2.65039 5.10986 2.65039C 4.55583 2.65039 4.11035 2.82259 3.77344 3.16699C 3.44401 3.50391 3.27181 3.97184 3.25684 4.5708L 0 4.5708C 0.014974 3.14079 0.475423 2.02148 1.38135 1.21289C 2.29476 0.404297 3.5376 0 5.10986 0C 6.6971 0 7.92871 0.385579 8.80469 1.15674C 9.68066 1.92041 10.1187 3.00228 10.1187 4.40234C 10.1187 5.03874 9.9764 5.64144 9.69189 6.21045C 9.40739 6.77197 8.9095 7.39714 8.19824 8.08594L 7.28857 8.95068C 6.71956 9.49723 6.39388 10.1374 6.31152 10.8711L 6.2666 11.5562L 3.3916 11.5562ZM 3.06592 15.0039C 3.06592 14.5023 3.23438 14.0905 3.57129 13.7686C 3.91569 13.4391 4.35368 13.2744 4.88525 13.2744C 5.41683 13.2744 5.85107 13.4391 6.18799 13.7686C 6.53239 14.0905 6.70459 14.5023 6.70459 15.0039C 6.70459 15.498 6.53613 15.9061 6.19922 16.228C 5.86979 16.55 5.4318 16.7109 4.88525 16.7109C 4.3387 16.7109 3.89697 16.55 3.56006 16.228C 3.23063 15.9061 3.06592 15.498 3.06592 15.0039Z"/>
</defs>
</svg>
