<svg width="92" height="88" viewBox="0 0 92 88" version="1.1" xmlns="http://www.w3.org/2000/svg" xmlns:xlink="http://www.w3.org/1999/xlink">
<title>Beatrice</title>
<desc>Created using Figma</desc>
<g id="Canvas" transform="translate(441 224)">
<g id="Beatrice">
<g id="Vector">
<use xlink:href="#path0_fill" transform="translate(-427.815 -192.396)" fill="#F8CD0E"/>
<use xlink:href="#path1_stroke" transform="translate(-427.815 -192.396)"/>
</g>
<g id="Vector">
<use xlink:href="#path2_fill" transform="translate(-390.218 -220.71)" fill="#FFFFFF"/>
<use xlink:href="#path3_stroke" transform="translate(-390.218 -220.71)"/>
</g>
<g id="Vector">
<use xlink:href="#path4_fill" transform="translate(-418.54 -220.71)" fill="#FFFFFF"/>
<use xlink:href="#path5_stroke" transform="translate(-418.54 -220.71)"/>
</g>
<g id="Vector">
<use xlink:href="#path6_fill" transform="translate(-377.652 -177.004)"/>
</g>
<g id="Vector">
<use xlink:href="#path7_stroke" transform="translate(-441 -166.028)"/>
</g>
<g id="Vector">
<use xlink:href="#path8_fill" transform="translate(-393.218 -192.395)"/>
</g>
<g id="Vector">
<use xlink:href="#path9_fill" transform="translate(-408.623 -192.395)"/>
</g>
<g id="Vector">
<use xlink:href="#path10_stroke" transform="translate(-373.079 -159.79)"/>
</g>
</g>
</g>
<defs>
<path id="path0_fill" d="M 4.19617e-07 26.351C 4.19617e-07 40.947 10.952 52.735 25.999 52.735C 26.749 52.735 49.063 52.735 49.063 52.735C 63.068 51.636 75.194 40.219 75.194 26.351C 75.194 11.755 64.11 0.0319982 49.063 0.0319982C 49.063 0.0319982 26.819 -0.0400018 25.999 0.0319982C 12.12 1.254 4.19617e-07 12.571 4.19617e-07 26.351Z"/>
<path id="path1_stroke" d="M 49.063 52.735L 49.063 55.735L 49.1805 55.735L 49.2977 55.7258L 49.063 52.735ZM 49.063 0.0319982L 49.0533 3.032L 49.063 3.032L 49.063 0.0319982ZM 25.999 0.0319982L 25.7366 -2.9565L 25.7359 -2.95644L 25.999 0.0319982ZM -3 26.351C -3 42.5112 9.20396 55.735 25.999 55.735L 25.999 49.735C 12.7 49.735 3 39.3828 3 26.351L -3 26.351ZM 25.999 55.735C 26.0005 55.735 26.002 55.735 26.0036 55.735C 26.0053 55.735 26.007 55.735 26.0088 55.735C 26.0106 55.735 26.0124 55.735 26.0144 55.735C 26.0163 55.735 26.0184 55.735 26.0205 55.735C 26.0226 55.735 26.0248 55.735 26.0271 55.735C 26.0294 55.735 26.0317 55.735 26.0342 55.735C 26.0366 55.735 26.0391 55.735 26.0417 55.735C 26.0443 55.735 26.047 55.735 26.0498 55.735C 26.0525 55.735 26.0554 55.735 26.0583 55.735C 26.0612 55.735 26.0642 55.735 26.0673 55.735C 26.0704 55.735 26.0735 55.735 26.0768 55.735C 26.08 55.735 26.0833 55.735 26.0867 55.735C 26.0901 55.735 26.0936 55.735 26.0971 55.735C 26.1007 55.735 26.1043 55.735 26.108 55.735C 26.1117 55.735 26.1155 55.735 26.1193 55.735C 26.1232 55.735 26.1271 55.735 26.1311 55.735C 26.1352 55.735 26.1393 55.735 26.1434 55.735C 26.1476 55.735 26.1518 55.735 26.1562 55.735C 26.1605 55.735 26.1649 55.735 26.1693 55.735C 26.1738 55.735 26.1784 55.735 26.183 55.735C 26.1876 55.735 26.1923 55.735 26.1971 55.735C 26.2019 55.735 26.2067 55.735 26.2116 55.735C 26.2166 55.735 26.2216 55.735 26.2266 55.735C 26.2317 55.735 26.2369 55.735 26.2421 55.735C 26.2473 55.735 26.2526 55.735 26.258 55.735C 26.2634 55.735 26.2688 55.735 26.2743 55.735C 26.2799 55.735 26.2854 55.735 26.2911 55.735C 26.2968 55.735 26.3025 55.735 26.3083 55.735C 26.3142 55.735 26.32 55.735 26.326 55.735C 26.332 55.735 26.338 55.735 26.3441 55.735C 26.3502 55.735 26.3564 55.735 26.3626 55.735C 26.3689 55.735 26.3752 55.735 26.3816 55.735C 26.388 55.735 26.3945 55.735 26.401 55.735C 26.4076 55.735 26.4142 55.735 26.4208 55.735C 26.4275 55.735 26.4343 55.735 26.4411 55.735C 26.4479 55.735 26.4548 55.735 26.4618 55.735C 26.4687 55.735 26.4758 55.735 26.4829 55.735C 26.49 55.735 26.4972 55.735 26.5044 55.735C 26.5116 55.735 26.519 55.735 26.5263 55.735C 26.5337 55.735 26.5412 55.735 26.5487 55.735C 26.5562 55.735 26.5638 55.735 26.5715 55.735C 26.5791 55.735 26.5869 55.735 26.5947 55.735C 26.6025 55.735 26.6103 55.735 26.6183 55.735C 26.6262 55.735 26.6342 55.735 26.6423 55.735C 26.6503 55.735 26.6585 55.735 26.6667 55.735C 26.6749 55.735 26.6832 55.735 26.6915 55.735C 26.6999 55.735 26.7083 55.735 26.7167 55.735C 26.7252 55.735 26.7338 55.735 26.7424 55.735C 26.751 55.735 26.7596 55.735 26.7684 55.735C 26.7771 55.735 26.7859 55.735 26.7948 55.735C 26.8037 55.735 26.8126 55.735 26.8216 55.735C 26.8306 55.735 26.8397 55.735 26.8488 55.735C 26.858 55.735 26.8672 55.735 26.8764 55.735C 26.8857 55.735 26.895 55.735 26.9044 55.735C 26.9138 55.735 26.9233 55.735 26.9328 55.735C 26.9423 55.735 26.9519 55.735 26.9616 55.735C 26.9712 55.735 26.981 55.735 26.9907 55.735C 27.0005 55.735 27.0104 55.735 27.0203 55.735C 27.0302 55.735 27.0401 55.735 27.0502 55.735C 27.0602 55.735 27.0703 55.735 27.0805 55.735C 27.0906 55.735 27.1008 55.735 27.1111 55.735C 27.1214 55.735 27.1318 55.735 27.1422 55.735C 27.1526 55.735 27.163 55.735 27.1736 55.735C 27.1841 55.735 27.1947 55.735 27.2054 55.735C 27.216 55.735 27.2267 55.735 27.2375 55.735C 27.2483 55.735 27.2591 55.735 27.27 55.735C 27.2809 55.735 27.2919 55.735 27.3029 55.735C 27.3139 55.735 27.325 55.735 27.3361 55.735C 27.3473 55.735 27.3585 55.735 27.3697 55.735C 27.381 55.735 27.3923 55.735 27.4037 55.735C 27.4151 55.735 27.4265 55.735 27.438 55.735C 27.4495 55.735 27.4611 55.735 27.4727 55.735C 27.4843 55.735 27.496 55.735 27.5077 55.735C 27.5194 55.735 27.5312 55.735 27.5431 55.735C 27.5549 55.735 27.5668 55.735 27.5788 55.735C 27.5908 55.735 27.6028 55.735 27.6149 55.735C 27.627 55.735 27.6391 55.735 27.6513 55.735C 27.6635 55.735 27.6757 55.735 27.688 55.735C 27.7004 55.735 27.7127 55.735 27.7251 55.735C 27.7376 55.735 27.75 55.735 27.7626 55.735C 27.7751 55.735 27.7877 55.735 27.8003 55.735C 27.813 55.735 27.8257 55.735 27.8384 55.735C 27.8512 55.735 27.864 55.735 27.8769 55.735C 27.8898 55.735 27.9027 55.735 27.9157 55.735C 27.9286 55.735 27.9417 55.735 27.9548 55.735C 27.9678 55.735 27.981 55.735 27.9942 55.735C 28.0074 55.735 28.0206 55.735 28.0339 55.735C 28.0472 55.735 28.0606 55.735 28.074 55.735C 28.0874 55.735 28.1009 55.735 28.1144 55.735C 28.1279 55.735 28.1415 55.735 28.1551 55.735C 28.1687 55.735 28.1824 55.735 28.1961 55.735C 28.2099 55.735 28.2236 55.735 28.2375 55.735C 28.2513 55.735 28.2652 55.735 28.2791 55.735C 28.2931 55.735 28.3071 55.735 28.3211 55.735C 28.3351 55.735 28.3492 55.735 28.3634 55.735C 28.3775 55.735 28.3917 55.735 28.406 55.735C 28.4202 55.735 28.4345 55.735 28.4489 55.735C 28.4632 55.735 28.4776 55.735 28.4921 55.735C 28.5065 55.735 28.521 55.735 28.5355 55.735C 28.5501 55.735 28.5647 55.735 28.5793 55.735C 28.594 55.735 28.6087 55.735 28.6234 55.735C 28.6382 55.735 28.653 55.735 28.6678 55.735C 28.6827 55.735 28.6976 55.735 28.7125 55.735C 28.7274 55.735 28.7424 55.735 28.7575 55.735C 28.7725 55.735 28.7876 55.735 28.8027 55.735C 28.8179 55.735 28.833 55.735 28.8483 55.735C 28.8635 55.735 28.8788 55.735 28.8941 55.735C 28.9094 55.735 28.9248 55.735 28.9402 55.735C 28.9557 55.735 28.9711 55.735 28.9866 55.735C 29.0021 55.735 29.0177 55.735 29.0333 55.735C 29.0489 55.735 29.0646 55.735 29.0803 55.735C 29.096 55.735 29.1117 55.735 29.1275 55.735C 29.1433 55.735 29.1591 55.735 29.175 55.735C 29.1909 55.735 29.2068 55.735 29.2228 55.735C 29.2388 55.735 29.2548 55.735 29.2708 55.735C 29.2869 55.735 29.303 55.735 29.3192 55.735C 29.3353 55.735 29.3515 55.735 29.3677 55.735C 29.384 55.735 29.4003 55.735 29.4166 55.735C 29.4329 55.735 29.4493 55.735 29.4657 55.735C 29.4821 55.735 29.4986 55.735 29.5151 55.735C 29.5316 55.735 29.5481 55.735 29.5647 55.735C 29.5813 55.735 29.5979 55.735 29.6146 55.735C 29.6313 55.735 29.648 55.735 29.6647 55.735C 29.6815 55.735 29.6983 55.735 29.7151 55.735C 29.7319 55.735 29.7488 55.735 29.7658 55.735C 29.7827 55.735 29.7996 55.735 29.8166 55.735C 29.8336 55.735 29.8507 55.735 29.8678 55.735C 29.8849 55.735 29.902 55.735 29.9192 55.735C 29.9363 55.735 29.9535 55.735 29.9708 55.735C 29.988 55.735 30.0053 55.735 30.0226 55.735C 30.04 55.735 30.0573 55.735 30.0747 55.735C 30.0921 55.735 30.1096 55.735 30.1271 55.735C 30.1446 55.735 30.1621 55.735 30.1797 55.735C 30.1972 55.735 30.2148 55.735 30.2325 55.735C 30.2501 55.735 30.2678 55.735 30.2855 55.735C 30.3032 55.735 30.321 55.735 30.3388 55.735C 30.3566 55.735 30.3744 55.735 30.3923 55.735C 30.4101 55.735 30.428 55.735 30.446 55.735C 30.4639 55.735 30.4819 55.735 30.4999 55.735C 30.5179 55.735 30.536 55.735 30.5541 55.735C 30.5722 55.735 30.5903 55.735 30.6084 55.735C 30.6266 55.735 30.6448 55.735 30.663 55.735C 30.6813 55.735 30.6996 55.735 30.7179 55.735C 30.7362 55.735 30.7545 55.735 30.7729 55.735C 30.7913 55.735 30.8097 55.735 30.8281 55.735C 30.8466 55.735 30.865 55.735 30.8836 55.735C 30.9021 55.735 30.9206 55.735 30.9392 55.735C 30.9578 55.735 30.9764 55.735 30.9951 55.735C 31.0137 55.735 31.0324 55.735 31.0511 55.735C 31.0699 55.735 31.0886 55.735 31.1074 55.735C 31.1262 55.735 31.145 55.735 31.1639 55.735C 31.1827 55.735 31.2016 55.735 31.2205 55.735C 31.2394 55.735 31.2584 55.735 31.2774 55.735C 31.2964 55.735 31.3154 55.735 31.3344 55.735C 31.3535 55.735 31.3725 55.735 31.3917 55.735C 31.4108 55.735 31.4299 55.735 31.4491 55.735C 31.4683 55.735 31.4875 55.735 31.5067 55.735C 31.5259 55.735 31.5452 55.735 31.5645 55.735C 31.5838 55.735 31.6031 55.735 31.6225 55.735C 31.6418 55.735 31.6612 55.735 31.6807 55.735C 31.7001 55.735 31.7195 55.735 31.739 55.735C 31.7585 55.735 31.778 55.735 31.7975 55.735C 31.8171 55.735 31.8366 55.735 31.8562 55.735C 31.8758 55.735 31.8954 55.735 31.9151 55.735C 31.9347 55.735 31.9544 55.735 31.9741 55.735C 31.9939 55.735 32.0136 55.735 32.0334 55.735C 32.0531 55.735 32.0729 55.735 32.0927 55.735C 32.1126 55.735 32.1324 55.735 32.1523 55.735C 32.1722 55.735 32.1921 55.735 32.212 55.735C 32.2319 55.735 32.2519 55.735 32.2719 55.735C 32.2919 55.735 32.3119 55.735 32.3319 55.735C 32.352 55.735 32.372 55.735 32.3921 55.735C 32.4122 55.735 32.4323 55.735 32.4525 55.735C 32.4726 55.735 32.4928 55.735 32.513 55.735C 32.5332 55.735 32.5534 55.735 32.5736 55.735C 32.5939 55.735 32.6141 55.735 32.6344 55.735C 32.6547 55.735 32.675 55.735 32.6954 55.735C 32.7157 55.735 32.7361 55.735 32.7565 55.735C 32.7769 55.735 32.7973 55.735 32.8177 55.735C 32.8382 55.735 32.8586 55.735 32.8791 55.735C 32.8996 55.735 32.9201 55.735 32.9407 55.735C 32.9612 55.735 32.9817 55.735 33.0023 55.735C 33.0229 55.735 33.0435 55.735 33.0641 55.735C 33.0847 55.735 33.1054 55.735 33.1261 55.735C 33.1467 55.735 33.1674 55.735 33.1881 55.735C 33.2088 55.735 33.2296 55.735 33.2503 55.735C 33.2711 55.735 33.2919 55.735 33.3127 55.735C 33.3335 55.735 33.3543 55.735 33.3751 55.735C 33.396 55.735 33.4168 55.735 33.4377 55.735C 33.4586 55.735 33.4795 55.735 33.5004 55.735C 33.5213 55.735 33.5423 55.735 33.5632 55.735C 33.5842 55.735 33.6052 55.735 33.6262 55.735C 33.6472 55.735 33.6682 55.735 33.6892 55.735C 33.7103 55.735 33.7313 55.735 33.7524 55.735C 33.7735 55.735 33.7946 55.735 33.8157 55.735C 33.8368 55.735 33.858 55.735 33.8791 55.735C 33.9003 55.735 33.9214 55.735 33.9426 55.735C 33.9638 55.735 33.985 55.735 34.0062 55.735C 34.0275 55.735 34.0487 55.735 34.07 55.735C 34.0912 55.735 34.1125 55.735 34.1338 55.735C 34.1551 55.735 34.1764 55.735 34.1977 55.735C 34.219 55.735 34.2404 55.735 34.2617 55.735C 34.2831 55.735 34.3045 55.735 34.3259 55.735C 34.3473 55.735 34.3687 55.735 34.3901 55.735C 34.4115 55.735 34.4329 55.735 34.4544 55.735C 34.4758 55.735 34.4973 55.735 34.5188 55.735C 34.5403 55.735 34.5618 55.735 34.5833 55.735C 34.6048 55.735 34.6263 55.735 34.6479 55.735C 34.6694 55.735 34.691 55.735 34.7125 55.735C 34.7341 55.735 34.7557 55.735 34.7773 55.735C 34.7989 55.735 34.8205 55.735 34.8421 55.735C 34.8637 55.735 34.8854 55.735 34.907 55.735C 34.9287 55.735 34.9503 55.735 34.972 55.735C 34.9937 55.735 35.0154 55.735 35.0371 55.735C 35.0588 55.735 35.0805 55.735 35.1022 55.735C 35.124 55.735 35.1457 55.735 35.1674 55.735C 35.1892 55.735 35.2109 55.735 35.2327 55.735C 35.2545 55.735 35.2763 55.735 35.2981 55.735C 35.3199 55.735 35.3417 55.735 35.3635 55.735C 35.3853 55.735 35.4071 55.735 35.429 55.735C 35.4508 55.735 35.4726 55.735 35.4945 55.735C 35.5164 55.735 35.5382 55.735 35.5601 55.735C 35.582 55.735 35.6039 55.735 35.6258 55.735C 35.6477 55.735 35.6696 55.735 35.6915 55.735C 35.7134 55.735 35.7353 55.735 35.7572 55.735C 35.7792 55.735 35.8011 55.735 35.8231 55.735C 35.845 55.735 35.867 55.735 35.8889 55.735C 35.9109 55.735 35.9329 55.735 35.9549 55.735C 35.9768 55.735 35.9988 55.735 36.0208 55.735C 36.0428 55.735 36.0648 55.735 36.0868 55.735C 36.1088 55.735 36.1309 55.735 36.1529 55.735C 36.1749 55.735 36.1969 55.735 36.219 55.735C 36.241 55.735 36.2631 55.735 36.2851 55.735C 36.3072 55.735 36.3292 55.735 36.3513 55.735C 36.3733 55.735 36.3954 55.735 36.4175 55.735C 36.4396 55.735 36.4616 55.735 36.4837 55.735C 36.5058 55.735 36.5279 55.735 36.55 55.735C 36.5721 55.735 36.5942 55.735 36.6163 55.735C 36.6384 55.735 36.6605 55.735 36.6826 55.735C 36.7047 55.735 36.7268 55.735 36.7489 55.735C 36.7711 55.735 36.7932 55.735 36.8153 55.735C 36.8374 55.735 36.8596 55.735 36.8817 55.735C 36.9038 55.735 36.926 55.735 36.9481 55.735C 36.9702 55.735 36.9924 55.735 37.0145 55.735C 37.0367 55.735 37.0588 55.735 37.081 55.735C 37.1031 55.735 37.1253 55.735 37.1474 55.735C 37.1696 55.735 37.1917 55.735 37.2139 55.735C 37.236 55.735 37.2582 55.735 37.2804 55.735C 37.3025 55.735 37.3247 55.735 37.3468 55.735C 37.369 55.735 37.3912 55.735 37.4133 55.735C 37.4355 55.735 37.4577 55.735 37.4798 55.735C 37.502 55.735 37.5242 55.735 37.5463 55.735C 37.5685 55.735 37.5906 55.735 37.6128 55.735C 37.635 55.735 37.6571 55.735 37.6793 55.735C 37.7015 55.735 37.7236 55.735 37.7458 55.735C 37.7679 55.735 37.7901 55.735 37.8122 55.735C 37.8344 55.735 37.8566 55.735 37.8787 55.735C 37.9009 55.735 37.923 55.735 37.9452 55.735C 37.9673 55.735 37.9895 55.735 38.0116 55.735C 38.0338 55.735 38.0559 55.735 38.078 55.735C 38.1002 55.735 38.1223 55.735 38.1445 55.735C 38.1666 55.735 38.1887 55.735 38.2109 55.735C 38.233 55.735 38.2551 55.735 38.2772 55.735C 38.2994 55.735 38.3215 55.735 38.3436 55.735C 38.3657 55.735 38.3878 55.735 38.4099 55.735C 38.432 55.735 38.4541 55.735 38.4762 55.735C 38.4983 55.735 38.5204 55.735 38.5425 55.735C 38.5646 55.735 38.5867 55.735 38.6087 55.735C 38.6308 55.735 38.6529 55.735 38.6749 55.735C 38.697 55.735 38.7191 55.735 38.7411 55.735C 38.7632 55.735 38.7852 55.735 38.8073 55.735C 38.8293 55.735 38.8513 55.735 38.8734 55.735C 38.8954 55.735 38.9174 55.735 38.9394 55.735C 38.9614 55.735 38.9834 55.735 39.0054 55.735C 39.0274 55.735 39.0494 55.735 39.0714 55.735C 39.0934 55.735 39.1154 55.735 39.1374 55.735C 39.1593 55.735 39.1813 55.735 39.2032 55.735C 39.2252 55.735 39.2471 55.735 39.2691 55.735C 39.291 55.735 39.3129 55.735 39.3349 55.735C 39.3568 55.735 39.3787 55.735 39.4006 55.735C 39.4225 55.735 39.4444 55.735 39.4663 55.735C 39.4881 55.735 39.51 55.735 39.5319 55.735C 39.5537 55.735 39.5756 55.735 39.5974 55.735C 39.6193 55.735 39.6411 55.735 39.6629 55.735C 39.6847 55.735 39.7065 55.735 39.7283 55.735C 39.7501 55.735 39.7719 55.735 39.7937 55.735C 39.8155 55.735 39.8373 55.735 39.859 55.735C 39.8808 55.735 39.9025 55.735 39.9242 55.735C 39.946 55.735 39.9677 55.735 39.9894 55.735C 40.0111 55.735 40.0328 55.735 40.0545 55.735C 40.0762 55.735 40.0978 55.735 40.1195 55.735C 40.1411 55.735 40.1628 55.735 40.1844 55.735C 40.206 55.735 40.2277 55.735 40.2493 55.735C 40.2709 55.735 40.2925 55.735 40.314 55.735C 40.3356 55.735 40.3572 55.735 40.3787 55.735C 40.4003 55.735 40.4218 55.735 40.4433 55.735C 40.4648 55.735 40.4864 55.735 40.5078 55.735C 40.5293 55.735 40.5508 55.735 40.5723 55.735C 40.5937 55.735 40.6152 55.735 40.6366 55.735C 40.658 55.735 40.6794 55.735 40.7008 55.735C 40.7222 55.735 40.7436 55.735 40.765 55.735C 40.7864 55.735 40.8077 55.735 40.829 55.735C 40.8504 55.735 40.8717 55.735 40.893 55.735C 40.9143 55.735 40.9356 55.735 40.9568 55.735C 40.9781 55.735 40.9994 55.735 41.0206 55.735C 41.0418 55.735 41.063 55.735 41.0842 55.735C 41.1054 55.735 41.1266 55.735 41.1478 55.735C 41.1689 55.735 41.1901 55.735 41.2112 55.735C 41.2323 55.735 41.2534 55.735 41.2745 55.735C 41.2956 55.735 41.3167 55.735 41.3377 55.735C 41.3588 55.735 41.3798 55.735 41.4008 55.735C 41.4218 55.735 41.4428 55.735 41.4638 55.735C 41.4848 55.735 41.5057 55.735 41.5266 55.735C 41.5476 55.735 41.5685 55.735 41.5894 55.735C 41.6103 55.735 41.6311 55.735 41.652 55.735C 41.6728 55.735 41.6937 55.735 41.7145 55.735C 41.7353 55.735 41.7561 55.735 41.7768 55.735C 41.7976 55.735 41.8184 55.735 41.8391 55.735C 41.8598 55.735 41.8805 55.735 41.9012 55.735C 41.9219 55.735 41.9425 55.735 41.9632 55.735C 41.9838 55.735 42.0044 55.735 42.025 55.735C 42.0456 55.735 42.0662 55.735 42.0867 55.735C 42.1072 55.735 42.1278 55.735 42.1483 55.735C 42.1688 55.735 42.1892 55.735 42.2097 55.735C 42.2301 55.735 42.2506 55.735 42.271 55.735C 42.2914 55.735 42.3118 55.735 42.3321 55.735C 42.3525 55.735 42.3728 55.735 42.3931 55.735C 42.4134 55.735 42.4337 55.735 42.4539 55.735C 42.4742 55.735 42.4944 55.735 42.5146 55.735C 42.5348 55.735 42.555 55.735 42.5752 55.735C 42.5953 55.735 42.6155 55.735 42.6356 55.735C 42.6557 55.735 42.6758 55.735 42.6958 55.735C 42.7159 55.735 42.7359 55.735 42.7559 55.735C 42.7759 55.735 42.7958 55.735 42.8158 55.735C 42.8357 55.735 42.8557 55.735 42.8755 55.735C 42.8954 55.735 42.9153 55.735 42.9351 55.735C 42.955 55.735 42.9748 55.735 42.9946 55.735C 43.0143 55.735 43.0341 55.735 43.0538 55.735C 43.0735 55.735 43.0932 55.735 43.1129 55.735C 43.1326 55.735 43.1522 55.735 43.1718 55.735C 43.1914 55.735 43.211 55.735 43.2306 55.735C 43.2501 55.735 43.2696 55.735 43.2891 55.735C 43.3086 55.735 43.3281 55.735 43.3475 55.735C 43.367 55.735 43.3864 55.735 43.4057 55.735C 43.4251 55.735 43.4445 55.735 43.4638 55.735C 43.4831 55.735 43.5024 55.735 43.5216 55.735C 43.5409 55.735 43.5601 55.735 43.5793 55.735C 43.5985 55.735 43.6176 55.735 43.6368 55.735C 43.6559 55.735 43.675 55.735 43.694 55.735C 43.7131 55.735 43.7321 55.735 43.7511 55.735C 43.7701 55.735 43.7891 55.735 43.808 55.735C 43.827 55.735 43.8459 55.735 43.8647 55.735C 43.8836 55.735 43.9025 55.735 43.9213 55.735C 43.9401 55.735 43.9588 55.735 43.9776 55.735C 43.9963 55.735 44.015 55.735 44.0337 55.735C 44.0523 55.735 44.071 55.735 44.0896 55.735C 44.1082 55.735 44.1268 55.735 44.1453 55.735C 44.1638 55.735 44.1823 55.735 44.2008 55.735C 44.2192 55.735 44.2377 55.735 44.2561 55.735C 44.2745 55.735 44.2928 55.735 44.3111 55.735C 44.3295 55.735 44.3478 55.735 44.366 55.735C 44.3843 55.735 44.4025 55.735 44.4207 55.735C 44.4388 55.735 44.457 55.735 44.4751 55.735C 44.4932 55.735 44.5113 55.735 44.5293 55.735C 44.5473 55.735 44.5653 55.735 44.5833 55.735C 44.6013 55.735 44.6192 55.735 44.6371 55.735C 44.655 55.735 44.6728 55.735 44.6906 55.735C 44.7084 55.735 44.7262 55.735 44.7439 55.735C 44.7617 55.735 44.7794 55.735 44.797 55.735C 44.8147 55.735 44.8323 55.735 44.8499 55.735C 44.8675 55.735 44.885 55.735 44.9025 55.735C 44.92 55.735 44.9375 55.735 44.9549 55.735C 44.9724 55.735 44.9897 55.735 45.0071 55.735C 45.0244 55.735 45.0418 55.735 45.059 55.735C 45.0763 55.735 45.0935 55.735 45.1107 55.735C 45.1279 55.735 45.145 55.735 45.1621 55.735C 45.1792 55.735 45.1963 55.735 45.2133 55.735C 45.2304 55.735 45.2473 55.735 45.2643 55.735C 45.2812 55.735 45.2981 55.735 45.315 55.735C 45.3319 55.735 45.3487 55.735 45.3654 55.735C 45.3822 55.735 45.399 55.735 45.4156 55.735C 45.4323 55.735 45.449 55.735 45.4656 55.735C 45.4822 55.735 45.4988 55.735 45.5153 55.735C 45.5318 55.735 45.5483 55.735 45.5647 55.735C 45.5812 55.735 45.5975 55.735 45.6139 55.735C 45.6302 55.735 45.6465 55.735 45.6628 55.735C 45.6791 55.735 45.6953 55.735 45.7115 55.735C 45.7276 55.735 45.7438 55.735 45.7598 55.735C 45.7759 55.735 45.792 55.735 45.808 55.735C 45.8239 55.735 45.8399 55.735 45.8558 55.735C 45.8717 55.735 45.8876 55.735 45.9034 55.735C 45.9192 55.735 45.935 55.735 45.9507 55.735C 45.9664 55.735 45.9821 55.735 45.9977 55.735C 46.0133 55.735 46.0289 55.735 46.0445 55.735C 46.06 55.735 46.0755 55.735 46.0909 55.735C 46.1064 55.735 46.1218 55.735 46.1371 55.735C 46.1525 55.735 46.1678 55.735 46.183 55.735C 46.1983 55.735 46.2135 55.735 46.2286 55.735C 46.2438 55.735 46.2589 55.735 46.274 55.735C 46.289 55.735 46.304 55.735 46.319 55.735C 46.334 55.735 46.3489 55.735 46.3638 55.735C 46.3786 55.735 46.3935 55.735 46.4082 55.735C 46.423 55.735 46.4377 55.735 46.4524 55.735C 46.4671 55.735 46.4817 55.735 46.4963 55.735C 46.5108 55.735 46.5254 55.735 46.5398 55.735C 46.5543 55.735 46.5687 55.735 46.5831 55.735C 46.5975 55.735 46.6118 55.735 46.6261 55.735C 46.6403 55.735 46.6546 55.735 46.6687 55.735C 46.6829 55.735 46.697 55.735 46.7111 55.735C 46.7251 55.735 46.7392 55.735 46.7531 55.735C 46.7671 55.735 46.781 55.735 46.7949 55.735C 46.8087 55.735 46.8225 55.735 46.8363 55.735C 46.85 55.735 46.8637 55.735 46.8774 55.735C 46.891 55.735 46.9046 55.735 46.9182 55.735C 46.9317 55.735 46.9452 55.735 46.9587 55.735C 46.9721 55.735 46.9855 55.735 46.9988 55.735C 47.0121 55.735 47.0254 55.735 47.0386 55.735C 47.0519 55.735 47.065 55.735 47.0781 55.735C 47.0913 55.735 47.1043 55.735 47.1173 55.735C 47.1303 55.735 47.1433 55.735 47.1562 55.735C 47.1691 55.735 47.1819 55.735 47.1947 55.735C 47.2075 55.735 47.2202 55.735 47.2329 55.735C 47.2456 55.735 47.2582 55.735 47.2707 55.735C 47.2833 55.735 47.2958 55.735 47.3083 55.735C 47.3207 55.735 47.3331 55.735 47.3454 55.735C 47.3578 55.735 47.37 55.735 47.3823 55.735C 47.3945 55.735 47.4067 55.735 47.4188 55.735C 47.4309 55.735 47.4429 55.735 47.4549 55.735C 47.4669 55.735 47.4788 55.735 47.4907 55.735C 47.5026 55.735 47.5144 55.735 47.5262 55.735C 47.5379 55.735 47.5497 55.735 47.5613 55.735C 47.5729 55.735 47.5845 55.735 47.5961 55.735C 47.6076 55.735 47.619 55.735 47.6305 55.735C 47.6419 55.735 47.6532 55.735 47.6645 55.735C 47.6758 55.735 47.687 55.735 47.6982 55.735C 47.7094 55.735 47.7205 55.735 47.7315 55.735C 47.7426 55.735 47.7536 55.735 47.7645 55.735C 47.7754 55.735 47.7863 55.735 47.7971 55.735C 47.8079 55.735 47.8187 55.735 47.8293 55.735C 47.84 55.735 47.8507 55.735 47.8612 55.735C 47.8718 55.735 47.8823 55.735 47.8927 55.735C 47.9032 55.735 47.9135 55.735 47.9239 55.735C 47.9342 55.735 47.9444 55.735 47.9546 55.735C 47.9648 55.735 47.9749 55.735 47.985 55.735C 47.9951 55.735 48.0051 55.735 48.015 55.735C 48.0249 55.735 48.0348 55.735 48.0446 55.735C 48.0544 55.735 48.0642 55.735 48.0739 55.735C 48.0836 55.735 48.0932 55.735 48.1027 55.735C 48.1123 55.735 48.1218 55.735 48.1312 55.735C 48.1406 55.735 48.15 55.735 48.1593 55.735C 48.1686 55.735 48.1778 55.735 48.187 55.735C 48.1962 55.735 48.2053 55.735 48.2143 55.735C 48.2233 55.735 48.2323 55.735 48.2412 55.735C 48.2501 55.735 48.259 55.735 48.2677 55.735C 48.2765 55.735 48.2852 55.735 48.2939 55.735C 48.3025 55.735 48.3111 55.735 48.3196 55.735C 48.3281 55.735 48.3365 55.735 48.3449 55.735C 48.3533 55.735 48.3616 55.735 48.3698 55.735C 48.3781 55.735 48.3862 55.735 48.3944 55.735C 48.4025 55.735 48.4105 55.735 48.4185 55.735C 48.4264 55.735 48.4343 55.735 48.4422 55.735C 48.45 55.735 48.4578 55.735 48.4655 55.735C 48.4732 55.735 48.4808 55.735 48.4883 55.735C 48.4959 55.735 48.5034 55.735 48.5108 55.735C 48.5182 55.735 48.5256 55.735 48.5328 55.735C 48.5401 55.735 48.5473 55.735 48.5545 55.735C 48.5616 55.735 48.5687 55.735 48.5757 55.735C 48.5827 55.735 48.5896 55.735 48.5965 55.735C 48.6033 55.735 48.6101 55.735 48.6168 55.735C 48.6235 55.735 48.6302 55.735 48.6368 55.735C 48.6433 55.735 48.6498 55.735 48.6563 55.735C 48.6627 55.735 48.6691 55.735 48.6753 55.735C 48.6816 55.735 48.6878 55.735 48.694 55.735C 48.7001 55.735 48.7062 55.735 48.7122 55.735C 48.7182 55.735 48.7241 55.735 48.73 55.735C 48.7358 55.735 48.7416 55.735 48.7473 55.735C 48.753 55.735 48.7586 55.735 48.7642 55.735C 48.7698 55.735 48.7752 55.735 48.7806 55.735C 48.7861 55.735 48.7914 55.735 48.7967 55.735C 48.8019 55.735 48.8071 55.735 48.8122 55.735C 48.8173 55.735 48.8224 55.735 48.8273 55.735C 48.8323 55.735 48.8372 55.735 48.842 55.735C 48.8468 55.735 48.8516 55.735 48.8562 55.735C 48.8609 55.735 48.8655 55.735 48.87 55.735C 48.8745 55.735 48.8789 55.735 48.8833 55.735C 48.8876 55.735 48.8919 55.735 48.8961 55.735C 48.9003 55.735 48.9045 55.735 48.9085 55.735C 48.9126 55.735 48.9165 55.735 48.9204 55.735C 48.9243 55.735 48.9281 55.735 48.9319 55.735C 48.9356 55.735 48.9393 55.735 48.9429 55.735C 48.9465 55.735 48.95 55.735 48.9534 55.735C 48.9568 55.735 48.9602 55.735 48.9635 55.735C 48.9667 55.735 48.9699 55.735 48.9731 55.735C 48.9762 55.735 48.9792 55.735 48.9822 55.735C 48.9851 55.735 48.988 55.735 48.9908 55.735C 48.9936 55.735 48.9963 55.735 48.999 55.735C 49.0016 55.735 49.0042 55.735 49.0066 55.735C 49.0091 55.735 49.0115 55.735 49.0138 55.735C 49.0162 55.735 49.0184 55.735 49.0206 55.735C 49.0227 55.735 49.0248 55.735 49.0268 55.735C 49.0288 55.735 49.0307 55.735 49.0325 55.735C 49.0344 55.735 49.0361 55.735 49.0378 55.735C 49.0395 55.735 49.041 55.735 49.0426 55.735C 49.0441 55.735 49.0455 55.735 49.0468 55.735C 49.0482 55.735 49.0494 55.735 49.0506 55.735C 49.0518 55.735 49.0529 55.735 49.0539 55.735C 49.0549 55.735 49.0558 55.735 49.0567 55.735C 49.0575 55.735 49.0583 55.735 49.0589 55.735C 49.0596 55.735 49.0602 55.735 49.0607 55.735C 49.0612 55.735 49.0616 55.735 49.062 55.735C 49.0623 55.735 49.0626 55.735 49.0627 55.735C 49.0629 55.735 49.063 55.735 49.063 52.735C 49.063 49.735 49.0629 49.735 49.0627 49.735C 49.0626 49.735 49.0623 49.735 49.062 49.735C 49.0616 49.735 49.0612 49.735 49.0607 49.735C 49.0602 49.735 49.0596 49.735 49.0589 49.735C 49.0583 49.735 49.0575 49.735 49.0567 49.735C 49.0558 49.735 49.0549 49.735 49.0539 49.735C 49.0529 49.735 49.0518 49.735 49.0506 49.735C 49.0494 49.735 49.0482 49.735 49.0468 49.735C 49.0455 49.735 49.0441 49.735 49.0426 49.735C 49.041 49.735 49.0395 49.735 49.0378 49.735C 49.0361 49.735 49.0344 49.735 49.0325 49.735C 49.0307 49.735 49.0288 49.735 49.0268 49.735C 49.0248 49.735 49.0227 49.735 49.0206 49.735C 49.0184 49.735 49.0162 49.735 49.0138 49.735C 49.0115 49.735 49.0091 49.735 49.0066 49.735C 49.0042 49.735 49.0016 49.735 48.999 49.735C 48.9963 49.735 48.9936 49.735 48.9908 49.735C 48.988 49.735 48.9851 49.735 48.9822 49.735C 48.9792 49.735 48.9762 49.735 48.9731 49.735C 48.9699 49.735 48.9667 49.735 48.9635 49.735C 48.9602 49.735 48.9568 49.735 48.9534 49.735C 48.95 49.735 48.9465 49.735 48.9429 49.735C 48.9393 49.735 48.9356 49.735 48.9319 49.735C 48.9281 49.735 48.9243 49.735 48.9204 49.735C 48.9165 49.735 48.9126 49.735 48.9085 49.735C 48.9045 49.735 48.9003 49.735 48.8961 49.735C 48.8919 49.735 48.8876 49.735 48.8833 49.735C 48.8789 49.735 48.8745 49.735 48.87 49.735C 48.8655 49.735 48.8609 49.735 48.8562 49.735C 48.8516 49.735 48.8468 49.735 48.842 49.735C 48.8372 49.735 48.8323 49.735 48.8273 49.735C 48.8224 49.735 48.8173 49.735 48.8122 49.735C 48.8071 49.735 48.8019 49.735 48.7967 49.735C 48.7914 49.735 48.7861 49.735 48.7806 49.735C 48.7752 49.735 48.7698 49.735 48.7642 49.735C 48.7586 49.735 48.753 49.735 48.7473 49.735C 48.7416 49.735 48.7358 49.735 48.73 49.735C 48.7241 49.735 48.7182 49.735 48.7122 49.735C 48.7062 49.735 48.7001 49.735 48.694 49.735C 48.6878 49.735 48.6816 49.735 48.6753 49.735C 48.6691 49.735 48.6627 49.735 48.6563 49.735C 48.6498 49.735 48.6433 49.735 48.6368 49.735C 48.6302 49.735 48.6235 49.735 48.6168 49.735C 48.6101 49.735 48.6033 49.735 48.5965 49.735C 48.5896 49.735 48.5827 49.735 48.5757 49.735C 48.5687 49.735 48.5616 49.735 48.5545 49.735C 48.5473 49.735 48.5401 49.735 48.5328 49.735C 48.5256 49.735 48.5182 49.735 48.5108 49.735C 48.5034 49.735 48.4959 49.735 48.4883 49.735C 48.4808 49.735 48.4732 49.735 48.4655 49.735C 48.4578 49.735 48.45 49.735 48.4422 49.735C 48.4343 49.735 48.4264 49.735 48.4185 49.735C 48.4105 49.735 48.4025 49.735 48.3944 49.735C 48.3862 49.735 48.3781 49.735 48.3698 49.735C 48.3616 49.735 48.3533 49.735 48.3449 49.735C 48.3365 49.735 48.3281 49.735 48.3196 49.735C 48.3111 49.735 48.3025 49.735 48.2939 49.735C 48.2852 49.735 48.2765 49.735 48.2677 49.735C 48.259 49.735 48.2501 49.735 48.2412 49.735C 48.2323 49.735 48.2233 49.735 48.2143 49.735C 48.2053 49.735 48.1962 49.735 48.187 49.735C 48.1778 49.735 48.1686 49.735 48.1593 49.735C 48.15 49.735 48.1406 49.735 48.1312 49.735C 48.1218 49.735 48.1123 49.735 48.1027 49.735C 48.0932 49.735 48.0836 49.735 48.0739 49.735C 48.0642 49.735 48.0544 49.735 48.0446 49.735C 48.0348 49.735 48.0249 49.735 48.015 49.735C 48.0051 49.735 47.9951 49.735 47.985 49.735C 47.9749 49.735 47.9648 49.735 47.9546 49.735C 47.9444 49.735 47.9342 49.735 47.9239 49.735C 47.9135 49.735 47.9032 49.735 47.8927 49.735C 47.8823 49.735 47.8718 49.735 47.8612 49.735C 47.8507 49.735 47.84 49.735 47.8293 49.735C 47.8187 49.735 47.8079 49.735 47.7971 49.735C 47.7863 49.735 47.7754 49.735 47.7645 49.735C 47.7536 49.735 47.7426 49.735 47.7315 49.735C 47.7205 49.735 47.7094 49.735 47.6982 49.735C 47.687 49.735 47.6758 49.735 47.6645 49.735C 47.6532 49.735 47.6419 49.735 47.6305 49.735C 47.619 49.735 47.6076 49.735 47.5961 49.735C 47.5845 49.735 47.5729 49.735 47.5613 49.735C 47.5497 49.735 47.5379 49.735 47.5262 49.735C 47.5144 49.735 47.5026 49.735 47.4907 49.735C 47.4788 49.735 47.4669 49.735 47.4549 49.735C 47.4429 49.735 47.4309 49.735 47.4188 49.735C 47.4067 49.735 47.3945 49.735 47.3823 49.735C 47.37 49.735 47.3578 49.735 47.3454 49.735C 47.3331 49.735 47.3207 49.735 47.3083 49.735C 47.2958 49.735 47.2833 49.735 47.2707 49.735C 47.2582 49.735 47.2456 49.735 47.2329 49.735C 47.2202 49.735 47.2075 49.735 47.1947 49.735C 47.1819 49.735 47.1691 49.735 47.1562 49.735C 47.1433 49.735 47.1303 49.735 47.1173 49.735C 47.1043 49.735 47.0913 49.735 47.0781 49.735C 47.065 49.735 47.0519 49.735 47.0386 49.735C 47.0254 49.735 47.0121 49.735 46.9988 49.735C 46.9855 49.735 46.9721 49.735 46.9587 49.735C 46.9452 49.735 46.9317 49.735 46.9182 49.735C 46.9046 49.735 46.891 49.735 46.8774 49.735C 46.8637 49.735 46.85 49.735 46.8363 49.735C 46.8225 49.735 46.8087 49.735 46.7949 49.735C 46.781 49.735 46.7671 49.735 46.7531 49.735C 46.7392 49.735 46.7251 49.735 46.7111 49.735C 46.697 49.735 46.6829 49.735 46.6687 49.735C 46.6546 49.735 46.6403 49.735 46.6261 49.735C 46.6118 49.735 46.5975 49.735 46.5831 49.735C 46.5687 49.735 46.5543 49.735 46.5398 49.735C 46.5254 49.735 46.5108 49.735 46.4963 49.735C 46.4817 49.735 46.4671 49.735 46.4524 49.735C 46.4377 49.735 46.423 49.735 46.4082 49.735C 46.3935 49.735 46.3786 49.735 46.3638 49.735C 46.3489 49.735 46.334 49.735 46.319 49.735C 46.304 49.735 46.289 49.735 46.274 49.735C 46.2589 49.735 46.2438 49.735 46.2286 49.735C 46.2135 49.735 46.1983 49.735 46.183 49.735C 46.1678 49.735 46.1525 49.735 46.1371 49.735C 46.1218 49.735 46.1064 49.735 46.0909 49.735C 46.0755 49.735 46.06 49.735 46.0445 49.735C 46.0289 49.735 46.0133 49.735 45.9977 49.735C 45.9821 49.735 45.9664 49.735 45.9507 49.735C 45.935 49.735 45.9192 49.735 45.9034 49.735C 45.8876 49.735 45.8717 49.735 45.8558 49.735C 45.8399 49.735 45.8239 49.735 45.808 49.735C 45.792 49.735 45.7759 49.735 45.7598 49.735C 45.7438 49.735 45.7276 49.735 45.7115 49.735C 45.6953 49.735 45.6791 49.735 45.6628 49.735C 45.6465 49.735 45.6302 49.735 45.6139 49.735C 45.5975 49.735 45.5812 49.735 45.5647 49.735C 45.5483 49.735 45.5318 49.735 45.5153 49.735C 45.4988 49.735 45.4822 49.735 45.4656 49.735C 45.449 49.735 45.4323 49.735 45.4156 49.735C 45.399 49.735 45.3822 49.735 45.3654 49.735C 45.3487 49.735 45.3319 49.735 45.315 49.735C 45.2981 49.735 45.2812 49.735 45.2643 49.735C 45.2473 49.735 45.2304 49.735 45.2133 49.735C 45.1963 49.735 45.1792 49.735 45.1621 49.735C 45.145 49.735 45.1279 49.735 45.1107 49.735C 45.0935 49.735 45.0763 49.735 45.059 49.735C 45.0418 49.735 45.0244 49.735 45.0071 49.735C 44.9897 49.735 44.9724 49.735 44.9549 49.735C 44.9375 49.735 44.92 49.735 44.9025 49.735C 44.885 49.735 44.8675 49.735 44.8499 49.735C 44.8323 49.735 44.8147 49.735 44.797 49.735C 44.7794 49.735 44.7617 49.735 44.7439 49.735C 44.7262 49.735 44.7084 49.735 44.6906 49.735C 44.6728 49.735 44.655 49.735 44.6371 49.735C 44.6192 49.735 44.6013 49.735 44.5833 49.735C 44.5653 49.735 44.5473 49.735 44.5293 49.735C 44.5113 49.735 44.4932 49.735 44.4751 49.735C 44.457 49.735 44.4388 49.735 44.4207 49.735C 44.4025 49.735 44.3843 49.735 44.366 49.735C 44.3478 49.735 44.3295 49.735 44.3111 49.735C 44.2928 49.735 44.2745 49.735 44.2561 49.735C 44.2377 49.735 44.2192 49.735 44.2008 49.735C 44.1823 49.735 44.1638 49.735 44.1453 49.735C 44.1268 49.735 44.1082 49.735 44.0896 49.735C 44.071 49.735 44.0523 49.735 44.0337 49.735C 44.015 49.735 43.9963 49.735 43.9776 49.735C 43.9588 49.735 43.9401 49.735 43.9213 49.735C 43.9025 49.735 43.8836 49.735 43.8647 49.735C 43.8459 49.735 43.827 49.735 43.808 49.735C 43.7891 49.735 43.7701 49.735 43.7511 49.735C 43.7321 49.735 43.7131 49.735 43.694 49.735C 43.675 49.735 43.6559 49.735 43.6368 49.735C 43.6176 49.735 43.5985 49.735 43.5793 49.735C 43.5601 49.735 43.5409 49.735 43.5216 49.735C 43.5024 49.735 43.4831 49.735 43.4638 49.735C 43.4445 49.735 43.4251 49.735 43.4057 49.735C 43.3864 49.735 43.367 49.735 43.3475 49.735C 43.3281 49.735 43.3086 49.735 43.2891 49.735C 43.2696 49.735 43.2501 49.735 43.2306 49.735C 43.211 49.735 43.1914 49.735 43.1718 49.735C 43.1522 49.735 43.1326 49.735 43.1129 49.735C 43.0932 49.735 43.0735 49.735 43.0538 49.735C 43.0341 49.735 43.0143 49.735 42.9946 49.735C 42.9748 49.735 42.955 49.735 42.9351 49.735C 42.9153 49.735 42.8954 49.735 42.8755 49.735C 42.8557 49.735 42.8357 49.735 42.8158 49.735C 42.7958 49.735 42.7759 49.735 42.7559 49.735C 42.7359 49.735 42.7159 49.735 42.6958 49.735C 42.6758 49.735 42.6557 49.735 42.6356 49.735C 42.6155 49.735 42.5953 49.735 42.5752 49.735C 42.555 49.735 42.5348 49.735 42.5146 49.735C 42.4944 49.735 42.4742 49.735 42.4539 49.735C 42.4337 49.735 42.4134 49.735 42.3931 49.735C 42.3728 49.735 42.3525 49.735 42.3321 49.735C 42.3118 49.735 42.2914 49.735 42.271 49.735C 42.2506 49.735 42.2301 49.735 42.2097 49.735C 42.1892 49.735 42.1688 49.735 42.1483 49.735C 42.1278 49.735 42.1072 49.735 42.0867 49.735C 42.0662 49.735 42.0456 49.735 42.025 49.735C 42.0044 49.735 41.9838 49.735 41.9632 49.735C 41.9425 49.735 41.9219 49.735 41.9012 49.735C 41.8805 49.735 41.8598 49.735 41.8391 49.735C 41.8184 49.735 41.7976 49.735 41.7768 49.735C 41.7561 49.735 41.7353 49.735 41.7145 49.735C 41.6937 49.735 41.6728 49.735 41.652 49.735C 41.6311 49.735 41.6103 49.735 41.5894 49.735C 41.5685 49.735 41.5476 49.735 41.5266 49.735C 41.5057 49.735 41.4848 49.735 41.4638 49.735C 41.4428 49.735 41.4218 49.735 41.4008 49.735C 41.3798 49.735 41.3588 49.735 41.3377 49.735C 41.3167 49.735 41.2956 49.735 41.2745 49.735C 41.2534 49.735 41.2323 49.735 41.2112 49.735C 41.1901 49.735 41.1689 49.735 41.1478 49.735C 41.1266 49.735 41.1054 49.735 41.0842 49.735C 41.063 49.735 41.0418 49.735 41.0206 49.735C 40.9994 49.735 40.9781 49.735 40.9568 49.735C 40.9356 49.735 40.9143 49.735 40.893 49.735C 40.8717 49.735 40.8504 49.735 40.829 49.735C 40.8077 49.735 40.7864 49.735 40.765 49.735C 40.7436 49.735 40.7222 49.735 40.7008 49.735C 40.6794 49.735 40.658 49.735 40.6366 49.735C 40.6152 49.735 40.5937 49.735 40.5723 49.735C 40.5508 49.735 40.5293 49.735 40.5078 49.735C 40.4864 49.735 40.4648 49.735 40.4433 49.735C 40.4218 49.735 40.4003 49.735 40.3787 49.735C 40.3572 49.735 40.3356 49.735 40.314 49.735C 40.2925 49.735 40.2709 49.735 40.2493 49.735C 40.2277 49.735 40.206 49.735 40.1844 49.735C 40.1628 49.735 40.1411 49.735 40.1195 49.735C 40.0978 49.735 40.0762 49.735 40.0545 49.735C 40.0328 49.735 40.0111 49.735 39.9894 49.735C 39.9677 49.735 39.946 49.735 39.9242 49.735C 39.9025 49.735 39.8808 49.735 39.859 49.735C 39.8373 49.735 39.8155 49.735 39.7937 49.735C 39.7719 49.735 39.7501 49.735 39.7283 49.735C 39.7065 49.735 39.6847 49.735 39.6629 49.735C 39.6411 49.735 39.6193 49.735 39.5974 49.735C 39.5756 49.735 39.5537 49.735 39.5319 49.735C 39.51 49.735 39.4881 49.735 39.4663 49.735C 39.4444 49.735 39.4225 49.735 39.4006 49.735C 39.3787 49.735 39.3568 49.735 39.3349 49.735C 39.3129 49.735 39.291 49.735 39.2691 49.735C 39.2471 49.735 39.2252 49.735 39.2032 49.735C 39.1813 49.735 39.1593 49.735 39.1374 49.735C 39.1154 49.735 39.0934 49.735 39.0714 49.735C 39.0494 49.735 39.0274 49.735 39.0054 49.735C 38.9834 49.735 38.9614 49.735 38.9394 49.735C 38.9174 49.735 38.8954 49.735 38.8734 49.735C 38.8513 49.735 38.8293 49.735 38.8073 49.735C 38.7852 49.735 38.7632 49.735 38.7411 49.735C 38.7191 49.735 38.697 49.735 38.6749 49.735C 38.6529 49.735 38.6308 49.735 38.6087 49.735C 38.5867 49.735 38.5646 49.735 38.5425 49.735C 38.5204 49.735 38.4983 49.735 38.4762 49.735C 38.4541 49.735 38.432 49.735 38.4099 49.735C 38.3878 49.735 38.3657 49.735 38.3436 49.735C 38.3215 49.735 38.2994 49.735 38.2772 49.735C 38.2551 49.735 38.233 49.735 38.2109 49.735C 38.1887 49.735 38.1666 49.735 38.1445 49.735C 38.1223 49.735 38.1002 49.735 38.078 49.735C 38.0559 49.735 38.0338 49.735 38.0116 49.735C 37.9895 49.735 37.9673 49.735 37.9452 49.735C 37.923 49.735 37.9009 49.735 37.8787 49.735C 37.8566 49.735 37.8344 49.735 37.8122 49.735C 37.7901 49.735 37.7679 49.735 37.7458 49.735C 37.7236 49.735 37.7015 49.735 37.6793 49.735C 37.6571 49.735 37.635 49.735 37.6128 49.735C 37.5906 49.735 37.5685 49.735 37.5463 49.735C 37.5242 49.735 37.502 49.735 37.4798 49.735C 37.4577 49.735 37.4355 49.735 37.4133 49.735C 37.3912 49.735 37.369 49.735 37.3468 49.735C 37.3247 49.735 37.3025 49.735 37.2804 49.735C 37.2582 49.735 37.236 49.735 37.2139 49.735C 37.1917 49.735 37.1696 49.735 37.1474 49.735C 37.1253 49.735 37.1031 49.735 37.081 49.735C 37.0588 49.735 37.0367 49.735 37.0145 49.735C 36.9924 49.735 36.9702 49.735 36.9481 49.735C 36.926 49.735 36.9038 49.735 36.8817 49.735C 36.8596 49.735 36.8374 49.735 36.8153 49.735C 36.7932 49.735 36.7711 49.735 36.7489 49.735C 36.7268 49.735 36.7047 49.735 36.6826 49.735C 36.6605 49.735 36.6384 49.735 36.6163 49.735C 36.5942 49.735 36.5721 49.735 36.55 49.735C 36.5279 49.735 36.5058 49.735 36.4837 49.735C 36.4616 49.735 36.4396 49.735 36.4175 49.735C 36.3954 49.735 36.3733 49.735 36.3513 49.735C 36.3292 49.735 36.3072 49.735 36.2851 49.735C 36.2631 49.735 36.241 49.735 36.219 49.735C 36.1969 49.735 36.1749 49.735 36.1529 49.735C 36.1309 49.735 36.1088 49.735 36.0868 49.735C 36.0648 49.735 36.0428 49.735 36.0208 49.735C 35.9988 49.735 35.9768 49.735 35.9549 49.735C 35.9329 49.735 35.9109 49.735 35.8889 49.735C 35.867 49.735 35.845 49.735 35.8231 49.735C 35.8011 49.735 35.7792 49.735 35.7572 49.735C 35.7353 49.735 35.7134 49.735 35.6915 49.735C 35.6696 49.735 35.6477 49.735 35.6258 49.735C 35.6039 49.735 35.582 49.735 35.5601 49.735C 35.5382 49.735 35.5164 49.735 35.4945 49.735C 35.4726 49.735 35.4508 49.735 35.429 49.735C 35.4071 49.735 35.3853 49.735 35.3635 49.735C 35.3417 49.735 35.3199 49.735 35.2981 49.735C 35.2763 49.735 35.2545 49.735 35.2327 49.735C 35.2109 49.735 35.1892 49.735 35.1674 49.735C 35.1457 49.735 35.124 49.735 35.1022 49.735C 35.0805 49.735 35.0588 49.735 35.0371 49.735C 35.0154 49.735 34.9937 49.735 34.972 49.735C 34.9503 49.735 34.9287 49.735 34.907 49.735C 34.8854 49.735 34.8637 49.735 34.8421 49.735C 34.8205 49.735 34.7989 49.735 34.7773 49.735C 34.7557 49.735 34.7341 49.735 34.7125 49.735C 34.691 49.735 34.6694 49.735 34.6479 49.735C 34.6263 49.735 34.6048 49.735 34.5833 49.735C 34.5618 49.735 34.5403 49.735 34.5188 49.735C 34.4973 49.735 34.4758 49.735 34.4544 49.735C 34.4329 49.735 34.4115 49.735 34.3901 49.735C 34.3687 49.735 34.3473 49.735 34.3259 49.735C 34.3045 49.735 34.2831 49.735 34.2617 49.735C 34.2404 49.735 34.219 49.735 34.1977 49.735C 34.1764 49.735 34.1551 49.735 34.1338 49.735C 34.1125 49.735 34.0912 49.735 34.07 49.735C 34.0487 49.735 34.0275 49.735 34.0062 49.735C 33.985 49.735 33.9638 49.735 33.9426 49.735C 33.9214 49.735 33.9003 49.735 33.8791 49.735C 33.858 49.735 33.8368 49.735 33.8157 49.735C 33.7946 49.735 33.7735 49.735 33.7524 49.735C 33.7313 49.735 33.7103 49.735 33.6892 49.735C 33.6682 49.735 33.6472 49.735 33.6262 49.735C 33.6052 49.735 33.5842 49.735 33.5632 49.735C 33.5423 49.735 33.5213 49.735 33.5004 49.735C 33.4795 49.735 33.4586 49.735 33.4377 49.735C 33.4168 49.735 33.396 49.735 33.3751 49.735C 33.3543 49.735 33.3335 49.735 33.3127 49.735C 33.2919 49.735 33.2711 49.735 33.2503 49.735C 33.2296 49.735 33.2088 49.735 33.1881 49.735C 33.1674 49.735 33.1467 49.735 33.1261 49.735C 33.1054 49.735 33.0847 49.735 33.0641 49.735C 33.0435 49.735 33.0229 49.735 33.0023 49.735C 32.9817 49.735 32.9612 49.735 32.9407 49.735C 32.9201 49.735 32.8996 49.735 32.8791 49.735C 32.8586 49.735 32.8382 49.735 32.8177 49.735C 32.7973 49.735 32.7769 49.735 32.7565 49.735C 32.7361 49.735 32.7157 49.735 32.6954 49.735C 32.675 49.735 32.6547 49.735 32.6344 49.735C 32.6141 49.735 32.5939 49.735 32.5736 49.735C 32.5534 49.735 32.5332 49.735 32.513 49.735C 32.4928 49.735 32.4726 49.735 32.4525 49.735C 32.4323 49.735 32.4122 49.735 32.3921 49.735C 32.372 49.735 32.352 49.735 32.3319 49.735C 32.3119 49.735 32.2919 49.735 32.2719 49.735C 32.2519 49.735 32.2319 49.735 32.212 49.735C 32.1921 49.735 32.1722 49.735 32.1523 49.735C 32.1324 49.735 32.1126 49.735 32.0927 49.735C 32.0729 49.735 32.0531 49.735 32.0334 49.735C 32.0136 49.735 31.9939 49.735 31.9741 49.735C 31.9544 49.735 31.9347 49.735 31.9151 49.735C 31.8954 49.735 31.8758 49.735 31.8562 49.735C 31.8366 49.735 31.8171 49.735 31.7975 49.735C 31.778 49.735 31.7585 49.735 31.739 49.735C 31.7195 49.735 31.7001 49.735 31.6807 49.735C 31.6612 49.735 31.6418 49.735 31.6225 49.735C 31.6031 49.735 31.5838 49.735 31.5645 49.735C 31.5452 49.735 31.5259 49.735 31.5067 49.735C 31.4875 49.735 31.4683 49.735 31.4491 49.735C 31.4299 49.735 31.4108 49.735 31.3917 49.735C 31.3725 49.735 31.3535 49.735 31.3344 49.735C 31.3154 49.735 31.2964 49.735 31.2774 49.735C 31.2584 49.735 31.2394 49.735 31.2205 49.735C 31.2016 49.735 31.1827 49.735 31.1639 49.735C 31.145 49.735 31.1262 49.735 31.1074 49.735C 31.0886 49.735 31.0699 49.735 31.0511 49.735C 31.0324 49.735 31.0137 49.735 30.9951 49.735C 30.9764 49.735 30.9578 49.735 30.9392 49.735C 30.9206 49.735 30.9021 49.735 30.8836 49.735C 30.865 49.735 30.8466 49.735 30.8281 49.735C 30.8097 49.735 30.7913 49.735 30.7729 49.735C 30.7545 49.735 30.7362 49.735 30.7179 49.735C 30.6996 49.735 30.6813 49.735 30.663 49.735C 30.6448 49.735 30.6266 49.735 30.6084 49.735C 30.5903 49.735 30.5722 49.735 30.5541 49.735C 30.536 49.735 30.5179 49.735 30.4999 49.735C 30.4819 49.735 30.4639 49.735 30.446 49.735C 30.428 49.735 30.4101 49.735 30.3923 49.735C 30.3744 49.735 30.3566 49.735 30.3388 49.735C 30.321 49.735 30.3032 49.735 30.2855 49.735C 30.2678 49.735 30.2501 49.735 30.2325 49.735C 30.2148 49.735 30.1972 49.735 30.1797 49.735C 30.1621 49.735 30.1446 49.735 30.1271 49.735C 30.1096 49.735 30.0921 49.735 30.0747 49.735C 30.0573 49.735 30.04 49.735 30.0226 49.735C 30.0053 49.735 29.988 49.735 29.9708 49.735C 29.9535 49.735 29.9363 49.735 29.9192 49.735C 29.902 49.735 29.8849 49.735 29.8678 49.735C 29.8507 49.735 29.8336 49.735 29.8166 49.735C 29.7996 49.735 29.7827 49.735 29.7658 49.735C 29.7488 49.735 29.7319 49.735 29.7151 49.735C 29.6983 49.735 29.6815 49.735 29.6647 49.735C 29.648 49.735 29.6313 49.735 29.6146 49.735C 29.5979 49.735 29.5813 49.735 29.5647 49.735C 29.5481 49.735 29.5316 49.735 29.5151 49.735C 29.4986 49.735 29.4821 49.735 29.4657 49.735C 29.4493 49.735 29.4329 49.735 29.4166 49.735C 29.4003 49.735 29.384 49.735 29.3677 49.735C 29.3515 49.735 29.3353 49.735 29.3192 49.735C 29.303 49.735 29.2869 49.735 29.2708 49.735C 29.2548 49.735 29.2388 49.735 29.2228 49.735C 29.2068 49.735 29.1909 49.735 29.175 49.735C 29.1591 49.735 29.1433 49.735 29.1275 49.735C 29.1117 49.735 29.096 49.735 29.0803 49.735C 29.0646 49.735 29.0489 49.735 29.0333 49.735C 29.0177 49.735 29.0021 49.735 28.9866 49.735C 28.9711 49.735 28.9557 49.735 28.9402 49.735C 28.9248 49.735 28.9094 49.735 28.8941 49.735C 28.8788 49.735 28.8635 49.735 28.8483 49.735C 28.833 49.735 28.8179 49.735 28.8027 49.735C 28.7876 49.735 28.7725 49.735 28.7575 49.735C 28.7424 49.735 28.7274 49.735 28.7125 49.735C 28.6976 49.735 28.6827 49.735 28.6678 49.735C 28.653 49.735 28.6382 49.735 28.6234 49.735C 28.6087 49.735 28.594 49.735 28.5793 49.735C 28.5647 49.735 28.5501 49.735 28.5355 49.735C 28.521 49.735 28.5065 49.735 28.4921 49.735C 28.4776 49.735 28.4632 49.735 28.4489 49.735C 28.4345 49.735 28.4202 49.735 28.406 49.735C 28.3917 49.735 28.3775 49.735 28.3634 49.735C 28.3492 49.735 28.3351 49.735 28.3211 49.735C 28.3071 49.735 28.2931 49.735 28.2791 49.735C 28.2652 49.735 28.2513 49.735 28.2375 49.735C 28.2236 49.735 28.2099 49.735 28.1961 49.735C 28.1824 49.735 28.1687 49.735 28.1551 49.735C 28.1415 49.735 28.1279 49.735 28.1144 49.735C 28.1009 49.735 28.0874 49.735 28.074 49.735C 28.0606 49.735 28.0472 49.735 28.0339 49.735C 28.0206 49.735 28.0074 49.735 27.9942 49.735C 27.981 49.735 27.9678 49.735 27.9548 49.735C 27.9417 49.735 27.9286 49.735 27.9157 49.735C 27.9027 49.735 27.8898 49.735 27.8769 49.735C 27.864 49.735 27.8512 49.735 27.8384 49.735C 27.8257 49.735 27.813 49.735 27.8003 49.735C 27.7877 49.735 27.7751 49.735 27.7626 49.735C 27.75 49.735 27.7376 49.735 27.7251 49.735C 27.7127 49.735 27.7004 49.735 27.688 49.735C 27.6757 49.735 27.6635 49.735 27.6513 49.735C 27.6391 49.735 27.627 49.735 27.6149 49.735C 27.6028 49.735 27.5908 49.735 27.5788 49.735C 27.5668 49.735 27.5549 49.735 27.5431 49.735C 27.5312 49.735 27.5194 49.735 27.5077 49.735C 27.496 49.735 27.4843 49.735 27.4727 49.735C 27.4611 49.735 27.4495 49.735 27.438 49.735C 27.4265 49.735 27.4151 49.735 27.4037 49.735C 27.3923 49.735 27.381 49.735 27.3697 49.735C 27.3585 49.735 27.3473 49.735 27.3361 49.735C 27.325 49.735 27.3139 49.735 27.3029 49.735C 27.2919 49.735 27.2809 49.735 27.27 49.735C 27.2591 49.735 27.2483 49.735 27.2375 49.735C 27.2267 49.735 27.216 49.735 27.2054 49.735C 27.1947 49.735 27.1841 49.735 27.1736 49.735C 27.163 49.735 27.1526 49.735 27.1422 49.735C 27.1318 49.735 27.1214 49.735 27.1111 49.735C 27.1008 49.735 27.0906 49.735 27.0805 49.735C 27.0703 49.735 27.0602 49.735 27.0502 49.735C 27.0401 49.735 27.0302 49.735 27.0203 49.735C 27.0104 49.735 27.0005 49.735 26.9907 49.735C 26.981 49.735 26.9712 49.735 26.9616 49.735C 26.9519 49.735 26.9423 49.735 26.9328 49.735C 26.9233 49.735 26.9138 49.735 26.9044 49.735C 26.895 49.735 26.8857 49.735 26.8764 49.735C 26.8672 49.735 26.858 49.735 26.8488 49.735C 26.8397 49.735 26.8306 49.735 26.8216 49.735C 26.8126 49.735 26.8037 49.735 26.7948 49.735C 26.7859 49.735 26.7771 49.735 26.7684 49.735C 26.7596 49.735 26.751 49.735 26.7424 49.735C 26.7338 49.735 26.7252 49.735 26.7167 49.735C 26.7083 49.735 26.6999 49.735 26.6915 49.735C 26.6832 49.735 26.6749 49.735 26.6667 49.735C 26.6585 49.735 26.6503 49.735 26.6423 49.735C 26.6342 49.735 26.6262 49.735 26.6183 49.735C 26.6103 49.735 26.6025 49.735 26.5947 49.735C 26.5869 49.735 26.5791 49.735 26.5715 49.735C 26.5638 49.735 26.5562 49.735 26.5487 49.735C 26.5412 49.735 26.5337 49.735 26.5263 49.735C 26.519 49.735 26.5116 49.735 26.5044 49.735C 26.4972 49.735 26.49 49.735 26.4829 49.735C 26.4758 49.735 26.4687 49.735 26.4618 49.735C 26.4548 49.735 26.4479 49.735 26.4411 49.735C 26.4343 49.735 26.4275 49.735 26.4208 49.735C 26.4142 49.735 26.4076 49.735 26.401 49.735C 26.3945 49.735 26.388 49.735 26.3816 49.735C 26.3752 49.735 26.3689 49.735 26.3626 49.735C 26.3564 49.735 26.3502 49.735 26.3441 49.735C 26.338 49.735 26.332 49.735 26.326 49.735C 26.32 49.735 26.3142 49.735 26.3083 49.735C 26.3025 49.735 26.2968 49.735 26.2911 49.735C 26.2854 49.735 26.2799 49.735 26.2743 49.735C 26.2688 49.735 26.2634 49.735 26.258 49.735C 26.2526 49.735 26.2473 49.735 26.2421 49.735C 26.2369 49.735 26.2317 49.735 26.2266 49.735C 26.2216 49.735 26.2166 49.735 26.2116 49.735C 26.2067 49.735 26.2019 49.735 26.1971 49.735C 26.1923 49.735 26.1876 49.735 26.183 49.735C 26.1784 49.735 26.1738 49.735 26.1693 49.735C 26.1649 49.735 26.1605 49.735 26.1562 49.735C 26.1518 49.735 26.1476 49.735 26.1434 49.735C 26.1393 49.735 26.1352 49.735 26.1311 49.735C 26.1271 49.735 26.1232 49.735 26.1193 49.735C 26.1155 49.735 26.1117 49.735 26.108 49.735C 26.1043 49.735 26.1007 49.735 26.0971 49.735C 26.0936 49.735 26.0901 49.735 26.0867 49.735C 26.0833 49.735 26.08 49.735 26.0768 49.735C 26.0735 49.735 26.0704 49.735 26.0673 49.735C 26.0642 49.735 26.0612 49.735 26.0583 49.735C 26.0554 49.735 26.0525 49.735 26.0498 49.735C 26.047 49.735 26.0443 49.735 26.0417 49.735C 26.0391 49.735 26.0366 49.735 26.0342 49.735C 26.0317 49.735 26.0294 49.735 26.0271 49.735C 26.0248 49.735 26.0226 49.735 26.0205 49.735C 26.0184 49.735 26.0163 49.735 26.0144 49.735C 26.0124 49.735 26.0106 49.735 26.0088 49.735C 26.007 49.735 26.0053 49.735 26.0036 49.735C 26.002 49.735 26.0005 49.735 25.999 49.735L 25.999 55.735ZM 49.2977 55.7258C 64.6126 54.524 78.194 42.0247 78.194 26.351L 72.194 26.351C 72.194 38.4133 61.5234 48.748 48.8283 49.7442L 49.2977 55.7258ZM 78.194 26.351C 78.194 10.1606 65.8287 -2.968 49.063 -2.968L 49.063 3.032C 62.3913 3.032 72.194 13.3494 72.194 26.351L 78.194 26.351ZM 49.063 0.0319982C 49.0727 -2.96799 49.0726 -2.96799 49.0724 -2.96799C 49.0723 -2.96799 49.072 -2.96799 49.0717 -2.96799C 49.071 -2.96799 49.07 -2.96799 49.0686 -2.968C 49.0659 -2.96801 49.0619 -2.96802 49.0565 -2.96804C 49.0458 -2.96807 49.0298 -2.96812 49.0087 -2.96819C 48.9665 -2.96833 48.904 -2.96852 48.8224 -2.96878C 48.6591 -2.96929 48.4196 -2.97003 48.1146 -2.97094C 47.5045 -2.97277 46.6321 -2.9753 45.5826 -2.97812C 43.4838 -2.98374 40.6765 -2.9905 37.8433 -2.995C 35.0107 -2.9995 32.1496 -3.00176 29.9441 -2.99837C 28.842 -2.99668 27.8992 -2.99358 27.204 -2.9886C 26.608 -2.98432 25.9951 -2.9792 25.7366 -2.9565L 26.2614 3.0205C 26.2079 3.0252 26.4695 3.01682 27.247 3.01125C 27.9251 3.00639 28.8546 3.0033 29.9533 3.00162C 32.1492 2.99825 35.0028 3.0005 37.8337 3.00499C 40.664 3.00949 43.469 3.01624 45.5665 3.02186C 46.6152 3.02467 47.487 3.0272 48.0966 3.02903C 48.4014 3.02995 48.6406 3.03068 48.8036 3.03119C 48.8851 3.03145 48.9476 3.03164 48.9896 3.03178C 49.0106 3.03185 49.0266 3.0319 49.0372 3.03193C 49.0426 3.03195 49.0466 3.03196 49.0493 3.03197C 49.0506 3.03197 49.0516 3.03198 49.0523 3.03198C 49.0526 3.03198 49.0529 3.03198 49.053 3.03198C 49.0532 3.03198 49.0533 3.03198 49.063 0.0319982ZM 25.7359 -2.95644C 10.587 -1.62264 -3 10.751 -3 26.351L 3 26.351C 3 14.391 13.653 4.13063 26.2621 3.02044L 25.7359 -2.95644Z"/>
<path id="path2_fill" d="M 1.49536e-06 14.161L 1.49536e-06 28.322C 0.0020015 28.319 14.161 28.322 14.161 28.322C 21.982 28.335 28.322 21.982 28.322 14.161C 28.322 6.34 21.982 1.31226e-06 14.161 1.31226e-06C 6.34 1.31226e-06 1.49536e-06 6.34 1.49536e-06 14.161Z"/>
<path id="path3_stroke" d="M 1.49536e-06 28.322L -3 28.322L -3 38.2303L 2.49615 29.9861L 1.49536e-06 28.322ZM 14.161 28.322L 14.166 25.322L 14.1616 25.322L 14.161 28.322ZM -3 14.161L -3 28.322L 3 28.322L 3 14.161L -3 14.161ZM 2.49615 29.9861C 1.54658 30.8926 0.228506 31.3133 0.156099 31.3179C 0.130707 31.3191 0.0923857 31.3206 0.0796297 31.3209C 0.0596157 31.3215 0.0442088 31.3216 0.0419979 31.3217C 0.0333399 31.3218 0.0277617 31.3218 0.0296568 31.3218C 0.031258 31.3218 0.0373302 31.3218 0.049997 31.3217C 0.0742184 31.3217 0.111964 31.3216 0.163493 31.3215C 0.26599 31.3214 0.417157 31.3212 0.610644 31.3211C 0.997337 31.3209 1.55007 31.3208 2.21382 31.3207C 3.54118 31.3206 5.31098 31.3207 7.08093 31.3209C 8.85084 31.3211 10.6207 31.3213 11.9481 31.3216C 12.6118 31.3217 13.1649 31.3218 13.552 31.3219C 13.7456 31.3219 13.8977 31.322 14.0014 31.322C 14.0532 31.322 14.093 31.322 14.1198 31.322C 14.1332 31.322 14.1433 31.322 14.1501 31.322C 14.1535 31.322 14.1561 31.322 14.1578 31.322C 14.1586 31.322 14.1593 31.322 14.1597 31.322C 14.1599 31.322 14.1601 31.322 14.1602 31.322C 14.1603 31.322 14.1604 31.322 14.161 28.322C 14.1616 25.322 14.1616 25.322 14.1615 25.322C 14.1614 25.322 14.1612 25.322 14.161 25.322C 14.1606 25.322 14.1599 25.322 14.1591 25.322C 14.1573 25.322 14.1548 25.322 14.1514 25.322C 14.1446 25.322 14.1344 25.322 14.121 25.322C 14.0942 25.322 14.0545 25.322 14.0026 25.322C 13.8989 25.322 13.7468 25.3219 13.5532 25.3219C 13.166 25.3218 12.6129 25.3217 11.9492 25.3216C 10.6217 25.3213 8.85167 25.3211 7.08157 25.3209C 5.31152 25.3207 3.5412 25.3206 2.21318 25.3207C 1.54925 25.3208 0.995478 25.3209 0.607468 25.3211C 0.413603 25.3212 0.260368 25.3214 0.155238 25.3215C 0.102954 25.3216 0.06108 25.3217 0.0316039 25.3218C 0.017422 25.3218 0.00312586 25.3219 -0.00894456 25.3219C -0.0138853 25.322 -0.0246252 25.322 -0.0367437 25.3222C -0.0406849 25.3222 -0.0573968 25.3225 -0.0782871 25.323C -0.0914812 25.3234 -0.130133 25.3248 -0.155749 25.326C -0.22838 25.3307 -1.54657 25.7514 -2.49615 26.6579L 2.49615 29.9861ZM 14.156 31.322C 23.6423 31.3378 31.322 23.6343 31.322 14.161L 25.322 14.161C 25.322 20.3297 20.3217 25.3322 14.166 25.322L 14.156 31.322ZM 31.322 14.161C 31.322 4.68315 23.6389 -3 14.161 -3L 14.161 3C 20.3251 3 25.322 7.99685 25.322 14.161L 31.322 14.161ZM 14.161 -3C 4.68315 -3 -3 4.68315 -3 14.161L 3 14.161C 3 7.99685 7.99686 3 14.161 3L 14.161 -3Z"/>
<path id="path4_fill" d="M 28.322 14.161L 28.322 28.322C 28.32 28.319 14.161 28.322 14.161 28.322C 6.34 28.335 -9.15527e-07 21.982 -9.15527e-07 14.161C -9.15527e-07 6.34 6.34 1.31226e-06 14.161 1.31226e-06C 21.982 1.31226e-06 28.322 6.34 28.322 14.161Z"/>
<path id="path5_stroke" d="M 28.322 28.322L 25.8259 29.9861L 31.322 38.2303L 31.322 28.322L 28.322 28.322ZM 14.161 28.322L 14.1604 25.322L 14.156 25.322L 14.161 28.322ZM 25.322 14.161L 25.322 28.322L 31.322 28.322L 31.322 14.161L 25.322 14.161ZM 30.8182 26.6579C 29.8686 25.7514 28.5504 25.3307 28.4778 25.326C 28.4521 25.3248 28.4135 25.3234 28.4003 25.323C 28.3794 25.3225 28.3627 25.3222 28.3587 25.3222C 28.3466 25.322 28.3359 25.322 28.3309 25.3219C 28.3189 25.3219 28.3046 25.3218 28.2904 25.3218C 28.2609 25.3217 28.219 25.3216 28.1668 25.3215C 28.0616 25.3214 27.9084 25.3212 27.7145 25.3211C 27.3265 25.3209 26.7728 25.3208 26.1088 25.3207C 24.7808 25.3206 23.0105 25.3207 21.2404 25.3209C 19.4703 25.3211 17.7003 25.3213 16.3728 25.3216C 15.7091 25.3217 15.156 25.3218 14.7688 25.3219C 14.5752 25.3219 14.4231 25.322 14.3194 25.322C 14.2675 25.322 14.2278 25.322 14.201 25.322C 14.1876 25.322 14.1774 25.322 14.1706 25.322C 14.1672 25.322 14.1647 25.322 14.1629 25.322C 14.1621 25.322 14.1614 25.322 14.161 25.322C 14.1608 25.322 14.1606 25.322 14.1605 25.322C 14.1604 25.322 14.1604 25.322 14.161 28.322C 14.1616 31.322 14.1617 31.322 14.1618 31.322C 14.1619 31.322 14.1621 31.322 14.1623 31.322C 14.1627 31.322 14.1634 31.322 14.1642 31.322C 14.1659 31.322 14.1685 31.322 14.1719 31.322C 14.1787 31.322 14.1888 31.322 14.2022 31.322C 14.229 31.322 14.2688 31.322 14.3206 31.322C 14.4243 31.322 14.5764 31.3219 14.77 31.3219C 15.1571 31.3218 15.7102 31.3217 16.3739 31.3216C 17.7013 31.3213 19.4712 31.3211 21.2411 31.3209C 23.011 31.3207 24.7808 31.3206 26.1082 31.3207C 26.7719 31.3208 27.3247 31.3209 27.7114 31.3211C 27.9048 31.3212 28.056 31.3214 28.1585 31.3215C 28.21 31.3216 28.2478 31.3217 28.272 31.3217C 28.2847 31.3218 28.2907 31.3218 28.2923 31.3218C 28.2942 31.3218 28.2887 31.3218 28.28 31.3217C 28.2778 31.3216 28.2624 31.3215 28.2424 31.3209C 28.2296 31.3206 28.1913 31.3191 28.1659 31.3179C 28.0935 31.3133 26.7754 30.8926 25.8259 29.9861L 30.8182 26.6579ZM 14.156 25.322C 8.00031 25.3322 3 20.3297 3 14.161L -3 14.161C -3 23.6343 4.67969 31.3378 14.166 31.322L 14.156 25.322ZM 3 14.161C 3 7.99685 7.99685 3 14.161 3L 14.161 -3C 4.68314 -3 -3 4.68315 -3 14.161L 3 14.161ZM 14.161 3C 20.3251 3 25.322 7.99686 25.322 14.161L 31.322 14.161C 31.322 4.68314 23.6389 -3 14.161 -3L 14.161 3Z"/>
<path id="path6_fill" d="M 4.573 9.146C 7.0986 9.146 9.146 7.09859 9.146 4.573C 9.146 2.0474 7.0986 0 4.573 0C 2.0474 0 0 2.0474 0 4.573C 0 7.09859 2.0474 9.146 4.573 9.146Z"/>
<path id="path7_stroke" d="M 0 2L 13.185 2L 13.185 -2L 0 -2L 0 2Z"/>
<path id="path8_fill" d="M 6 0L 0 0L 0 52.735L 6 52.735L 6 0Z"/>
<path id="path9_fill" d="M 6 0L 0 0L 0 52.735L 6 52.735L 6 0Z"/>
<path id="path10_stroke" d="M -2.38037e-06 3.2959e-06C -1.18389 1.61196 -1.18325 1.61243 -1.18258 1.61293C -1.1823 1.61313 -1.18158 1.61365 -1.18103 1.61406C -1.17993 1.61487 -1.17867 1.61579 -1.17726 1.61682C -1.17443 1.61888 -1.171 1.62137 -1.16697 1.6243C -1.1589 1.63015 -1.14842 1.63772 -1.13556 1.64692C -1.10983 1.66534 -1.07458 1.69032 -1.03011 1.7213C -0.941179 1.78325 -0.815233 1.86924 -0.654695 1.97458C -0.33385 2.18511 0.126555 2.47383 0.707042 2.8028C 1.86481 3.45892 3.51778 4.2851 5.50776 4.96778C 9.46466 6.32522 14.9505 7.17714 20.5062 4.73377L 18.8958 1.07224C 14.6015 2.96087 10.2368 2.36129 6.80574 1.18423C 5.10172 0.599654 3.67631 -0.11216 2.6792 -0.677228C 2.18225 -0.958855 1.7961 -1.20152 1.53974 -1.36974C 1.41167 -1.45377 1.31636 -1.51899 1.25618 -1.56091C 1.22609 -1.58186 1.20483 -1.59697 1.19267 -1.60567C 1.18659 -1.61002 1.1828 -1.61277 1.18132 -1.61384C 1.18058 -1.61437 1.18042 -1.61449 1.18085 -1.61418C 1.18106 -1.61402 1.18142 -1.61376 1.18193 -1.61339C 1.18218 -1.61321 1.18267 -1.61285 1.1828 -1.61275C 1.18332 -1.61237 1.18389 -1.61195 -2.38037e-06 3.2959e-06Z"/>
</defs>
</svg>
