<svg xmlns="http://www.w3.org/2000/svg" viewBox="0 0 91.38 143.053"><path d="M13.185 113.67c0 14.595 10.952 26.383 26 26.383h23.063c14.005-1.1 26.13-12.516 26.13-26.384 0-14.597-11.083-26.32-26.13-26.32 0 0-22.244-.072-23.064 0-13.88 1.22-26 12.538-26 26.32z" fill="#F8CD0E" stroke="#000" stroke-width="6" stroke-miterlimit="10"/><path d="M50.782 73.164v14.16c.002-.002 14.16 0 14.16 0 7.822.014 14.162-6.34 14.162-14.16s-6.34-14.16-14.16-14.16-14.162 6.34-14.162 14.16z" fill="#FFF" stroke="#000" stroke-width="6" stroke-miterlimit="10"/><path d="M50.782 73.164v14.16c-.002-.002-14.16 0-14.16 0-7.822.014-14.162-6.34-14.162-14.16s6.34-14.16 14.16-14.16 14.162 6.34 14.162 14.16z" fill="#FFF" stroke="#000" stroke-width="6" stroke-miterlimit="10"/><circle cx="67.921" cy="107.283" r="4.573"/><path fill="#FFF" stroke="#000" stroke-width="4" stroke-miterlimit="10" d="M0 113.686h13.185"/><path d="M47.782 87.318h6v52.735h-6zM32.377 87.318h6v52.735h-6z"/><path d="M67.92 119.923s9.852 7.235 19.702 2.903" fill="none" stroke="#000" stroke-width="4" stroke-miterlimit="10"/><ellipse transform="matrix(1 .011 -.011 1 .52 -.581)" cx="50.782" cy="44.86" rx="33.332" ry="5.183" stroke="#000" stroke-width="4" stroke-miterlimit="10"/><path stroke="#000" stroke-width="4" stroke-miterlimit="10" d="M36.62 44.86h28.323l-14.16-39z"/></svg>