<svg xmlns="http://www.w3.org/2000/svg" viewBox="0 0 115.5 87"><path d="M13.2 57.7c0 14.6 11 26.4 26 26.4h23.1c14-1.1 26.1-12.5 26.1-26.4 0-14.6-11.1-26.3-26.1-26.3 0 0-22.2-.1-23.1 0-13.9 1.2-26 12.5-26 26.3z" fill="#f8cd0e"/><path d="M50.8 17.2v14.2H65c7.8 0 14.2-6.3 14.2-14.2S72.8 3 64.9 3 50.8 9.3 50.8 17.2z" fill="#fff"/><path d="M67.9 55.9c2.5 0 4.6-2 4.6-4.6 0-2.5-2-4.6-4.6-4.6s-4.6 2-4.6 4.6c0 2.5 2.1 4.6 4.6 4.6zM0 55.7h13.2v4H0z"/><path d="M74.9 31.1c.8-.5 1.5-1.1 2.2-1.8 3.2-3.2 5-7.6 5-12.2C82.1 7.7 74.4 0 64.9 0 59 0 53.8 3 50.7 7.5 47.7 3 42.5 0 36.6 0c-9.5 0-17.2 7.7-17.2 17.2 0 4.6 1.8 8.9 5 12.2.9.9 1.9 1.7 2.9 2.3-10.1 5-17.2 15.1-17.2 26 0 16.5 12.7 29.4 29 29.4h23.3c15.9-1.2 28.9-14.4 28.9-29.4.1-11.9-6.6-21.9-16.4-26.6zM53.8 17.2C53.8 11 58.8 6 64.9 6c6.2 0 11.2 5 11.2 11.2 0 3-1.2 5.8-3.3 7.9-2.1 2.1-4.9 3.3-7.9 3.3H53.7V17.2zm-28.3 0C25.5 11 30.5 6 36.6 6s11.2 5 11.2 11.2v11.2H36.6c-3 0-5.8-1.2-7.9-3.3-2.1-2.1-3.2-5-3.2-7.9zm-9.3 40.5c0-9.5 6.8-18.2 16.2-21.7v44.1c-9.6-2.8-16.2-11.5-16.2-22.4zM38.4 81V34.5c.3 0 .7-.1 1-.1h8.4V81h-9.4zm30.7-18.7l-1.2 1.6-1.2 1.6c.3.2 6.5 4.7 14.2 4.7h.3C77.1 76.1 70.1 80.4 62.1 81h-8.3V34.3h8.5c13.2 0 23.1 10 23.1 23.3 0 2.9-.6 5.7-1.7 8.3-7.6 1.4-14.5-3.5-14.6-3.6z"/><path d="M104.3 24.2c-1-1.9-3-3.2-5.3-3.2-3.3 0-6 2.8-6 6.3v.7c0 7.2 11.1 13.6 11.1 13.6s11.4-6.4 11.4-13.6v-.3-.4c0-3.5-2.7-6.3-6-6.3-2.3 0-4.2 1.3-5.2 3.2z" fill-rule="evenodd" clip-rule="evenodd" fill="#f19a9a"/></svg>